{"glyphs":{"0":{"ha":912,"x_min":0,"x_max":880,"o":"m 758 951 q 842 880 842 930 l 842 859 q 791 795 835 795 l 779 795 q 762 825 762 802 l 762 829 q 779 867 779 852 l 779 871 q 749 888 772 888 q 703 829 722 888 q 795 673 703 796 q 829 568 829 606 q 800 492 829 530 q 821 396 821 441 q 812 295 812 317 q 871 215 825 262 l 880 198 q 804 38 835 38 q 783 34 797 34 l 753 34 q 724 46 724 34 l 720 46 q 648 0 684 0 l 644 0 q 589 13 589 0 l 589 21 q 640 76 596 76 l 686 143 q 581 261 581 224 l 572 269 q 433 244 497 244 q 345 257 362 248 l 345 252 q 362 114 362 183 l 362 101 q 311 59 362 59 q 299 55 299 59 q 257 13 299 13 l 227 13 q 189 38 189 13 q 206 80 195 80 l 227 80 l 236 76 l 240 97 q 198 320 240 265 q 139 480 139 382 q 147 534 147 518 l 147 551 q 84 627 147 606 q 67 631 67 627 q 42 623 54 623 q 0 707 0 674 q 50 745 0 734 q 147 787 50 777 l 147 804 q 168 846 149 846 q 282 694 203 824 q 358 568 300 674 q 417 551 404 551 q 551 560 541 560 l 627 560 q 749 547 697 560 q 762 581 762 577 q 665 758 762 627 q 644 817 644 795 l 644 846 q 732 947 644 913 q 758 951 736 947 m 741 223 l 736 194 q 766 139 766 152 q 753 105 766 126 l 762 105 q 804 168 776 105 q 741 223 804 174 z "},"1":{"ha":1517,"x_min":0,"x_max":1488,"o":"m 174 965 l 180 965 q 262 871 235 871 q 429 965 330 871 l 436 965 l 411 853 l 411 840 q 448 734 411 833 l 448 597 q 355 517 424 517 q 143 642 143 554 q 131 716 132 642 l 118 716 q 237 536 118 564 q 368 505 326 505 q 460 597 460 536 q 454 654 460 631 q 460 716 460 686 l 460 728 q 423 840 460 749 l 423 865 q 436 903 423 882 q 903 785 773 903 q 984 573 946 711 q 1164 454 1075 454 l 1177 454 q 1364 560 1224 454 q 1419 573 1404 573 l 1432 573 q 1488 517 1488 565 l 1488 505 q 1333 429 1451 471 q 1152 374 1333 406 q 909 560 979 374 l 897 560 l 897 554 q 890 511 897 535 q 965 255 890 467 l 977 50 q 928 12 964 12 q 890 37 890 12 q 903 100 903 76 q 865 231 897 218 l 859 231 q 753 43 800 43 l 703 43 l 673 50 l 673 68 l 741 125 q 772 205 772 183 q 585 342 772 273 q 536 349 561 349 l 511 349 q 405 218 469 349 q 268 25 349 153 q 193 0 220 0 l 174 0 q 137 19 142 0 l 137 37 q 199 75 137 53 q 305 305 248 121 l 305 311 q 162 368 305 319 q 112 405 160 378 l 112 399 q 186 349 112 380 l 186 342 q 106 218 133 342 q 125 75 125 94 q 94 19 111 19 l 75 19 q 19 218 25 43 l 19 231 q 50 380 19 271 l 50 392 q 0 536 50 408 l 0 560 q 94 766 0 606 q 174 965 94 905 z "},"2":{"ha":975,"x_min":0,"x_max":938,"o":"m 386 965 q 488 917 432 952 l 552 922 l 574 922 q 751 842 650 922 q 783 804 783 842 l 783 793 q 766 756 783 776 q 783 708 783 756 q 756 681 756 695 q 762 665 762 671 l 772 665 q 874 804 779 666 l 895 815 q 938 772 938 810 l 938 756 q 858 627 938 735 q 783 182 842 627 q 863 54 783 154 l 863 37 q 740 0 863 11 l 729 0 q 557 32 696 0 q 429 0 481 0 l 397 0 q 11 418 143 0 q 0 526 0 472 l 11 531 l 37 531 q 203 257 88 340 q 214 241 203 241 q 284 493 235 408 q 434 606 332 549 l 434 611 q 375 756 375 686 q 418 836 376 787 l 418 847 l 386 965 z "},"3":{"ha":1385,"x_min":0,"x_max":1339,"o":"m 783 968 l 1078 892 q 1162 707 1097 874 q 1289 438 1216 707 q 1339 311 1339 410 q 1196 51 1288 51 q 1044 8 1196 22 q 657 59 905 42 q 227 0 624 59 q 76 93 170 0 l 59 93 l 59 101 l 93 126 l 101 126 q 42 160 87 160 l 34 160 q 17 143 17 157 l 17 135 l 25 118 l 8 118 q 0 143 8 127 q 51 177 8 177 l 84 168 q 253 387 125 387 q 345 429 321 399 q 370 404 357 429 q 362 396 362 404 q 421 320 387 393 l 421 311 q 354 286 416 286 l 354 278 q 387 253 387 274 l 387 244 l 328 244 l 286 236 l 286 194 q 244 101 286 137 l 244 93 l 286 84 q 665 160 577 160 l 892 160 q 825 379 825 308 q 884 446 825 417 l 876 497 l 884 598 q 850 648 867 648 q 774 614 806 614 q 724 673 724 614 q 657 825 657 776 q 581 892 603 852 q 598 909 584 909 l 690 909 q 783 968 749 968 m 202 253 l 194 236 l 210 227 l 219 244 l 202 253 m 1103 227 q 1120 210 1106 210 l 1120 227 l 1103 227 m 25 118 l 42 118 l 42 109 l 25 109 l 25 118 m 42 109 l 59 109 l 59 101 l 42 101 l 42 109 z "},"4":{"ha":1305,"x_min":0,"x_max":1279,"o":"m 217 958 l 227 958 q 237 948 237 957 q 69 731 69 806 l 69 716 q 227 578 69 627 l 232 578 q 341 686 245 579 q 647 840 474 804 l 721 850 q 939 790 939 823 l 973 781 q 993 859 989 781 l 993 899 l 998 924 l 1008 924 q 1072 850 1029 912 l 1131 854 q 1190 844 1185 844 q 1274 899 1227 886 q 1279 884 1279 889 q 1250 692 1255 782 q 1171 597 1223 636 q 1082 425 1124 492 q 973 203 973 307 l 948 119 q 998 39 948 54 l 1003 15 l 1003 5 l 978 0 l 939 0 q 894 128 894 0 q 879 281 894 197 l 869 281 l 869 237 q 810 20 869 20 q 776 64 776 35 l 776 74 q 790 173 790 167 l 790 188 q 716 376 790 255 l 701 376 q 534 197 608 265 q 528 178 528 189 q 623 99 579 99 q 657 79 649 99 l 657 74 q 612 54 650 54 l 583 54 q 410 208 549 54 q 385 163 395 208 q 459 69 416 69 q 474 50 474 69 q 469 35 469 40 q 474 30 474 35 l 465 24 l 450 24 q 355 69 379 24 q 292 227 297 168 q 311 311 311 273 q 232 504 286 504 q 20 637 108 504 q 0 726 0 694 q 188 954 0 866 l 217 958 m 1027 751 q 1023 746 1027 746 q 1077 696 1044 696 l 1082 696 q 1092 707 1092 696 l 1092 716 q 1027 751 1092 730 m 1156 707 q 1161 692 1161 696 l 1171 692 q 1230 721 1213 692 l 1220 726 l 1200 726 q 1156 707 1162 726 z "},"5":{"ha":1497,"x_min":0,"x_max":1438,"o":"m 1404 965 l 1424 965 q 1438 952 1438 963 l 1438 945 q 979 599 1243 685 l 972 586 q 1052 439 1011 586 q 1251 120 1239 219 l 1232 106 l 1204 106 q 1072 267 1204 197 l 1059 267 q 998 180 1059 180 l 991 193 q 1005 260 998 248 q 925 326 1005 326 q 785 393 800 393 l 779 393 q 486 279 486 359 l 426 47 q 353 0 426 9 l 346 0 q 333 14 333 0 l 333 26 q 386 100 386 64 q 340 293 386 236 q 246 239 322 255 q 26 193 134 239 l 20 193 q 0 213 10 193 q 80 273 0 256 q 233 340 233 323 q 193 452 210 452 l 186 452 l 146 446 q 93 479 93 464 q 140 626 94 541 q 120 679 120 652 q 340 566 285 635 q 379 553 361 553 q 599 632 411 553 q 726 652 699 652 q 879 639 780 652 q 1258 839 1080 716 q 1404 965 1313 901 z "},"6":{"ha":340,"x_min":0,"x_max":295,"o":"m 130 1160 l 135 1160 q 215 880 215 1108 l 215 860 l 255 800 l 290 830 l 295 820 l 295 814 q 260 725 295 800 q 275 655 275 677 q 260 615 260 619 q 275 475 275 541 q 270 380 275 459 l 275 355 q 190 15 210 121 l 170 0 l 155 0 q 115 50 115 0 q 150 165 115 66 l 130 150 l 115 150 q 85 165 89 150 l 85 170 q 110 225 85 180 q 60 505 60 486 l 60 565 q 25 655 60 573 q 35 705 29 705 q 0 820 0 771 l 0 825 l 70 774 l 80 774 q 155 870 80 844 l 150 905 l 150 945 q 125 1130 150 1025 l 125 1135 l 130 1160 m 165 395 q 160 310 160 336 l 160 210 l 165 210 q 180 310 180 282 l 180 370 l 175 395 l 165 395 z "},"7":{"ha":1295,"x_min":0,"x_max":1246,"o":"m 1204 975 q 1227 873 1219 975 q 1246 837 1246 867 q 1149 367 1222 747 q 1204 144 1171 144 q 1240 120 1227 144 l 1240 109 q 1204 90 1234 90 l 1179 90 q 1101 199 1139 90 q 1035 331 1048 199 l 1023 337 l 1011 337 q 1005 319 1011 331 q 1011 277 1011 295 q 993 222 1011 266 q 1011 205 1002 222 l 1011 199 q 951 163 1011 182 l 951 157 q 1041 132 1041 157 l 1041 120 q 764 78 1041 89 q 746 109 757 109 q 30 0 600 72 q 0 24 3 12 l 0 48 q 626 151 136 89 q 686 193 686 176 q 668 349 668 288 q 873 626 668 538 q 1029 758 965 626 q 999 933 1029 825 l 999 939 q 1017 951 999 951 q 1114 903 1084 903 q 1192 975 1154 903 l 1204 975 z "},"8":{"ha":1646,"x_min":0,"x_max":1603,"o":"m 661 672 q 986 527 795 672 l 1031 527 q 1087 605 1044 605 q 1166 538 1138 587 q 1434 627 1265 538 l 1446 605 q 1412 471 1423 557 q 1423 347 1423 394 q 1379 235 1423 320 q 1603 168 1603 195 l 1603 146 q 1580 123 1603 123 l 1479 123 l 1401 134 q 1356 79 1401 79 q 807 134 807 96 l 807 146 l 795 146 q 347 0 795 45 q 0 224 0 40 q 258 572 0 374 q 661 672 503 672 z "},"9":{"ha":1292,"x_min":0,"x_max":1242,"o":"m 1200 949 q 1237 917 1228 917 q 1226 885 1237 903 q 1242 869 1242 873 l 1242 864 q 1216 853 1220 853 q 1141 672 1209 853 q 1061 565 1118 593 q 890 341 975 496 l 890 336 q 928 288 925 308 q 907 197 922 236 q 944 176 944 190 q 928 144 944 149 l 874 144 q 837 106 837 115 l 837 101 q 901 112 871 112 q 949 80 926 112 l 949 64 q 912 54 939 64 l 901 58 l 715 37 q 677 58 677 45 q 203 0 313 0 l 197 0 q 0 69 41 0 l 0 85 q 21 91 12 85 q 165 54 124 54 q 469 91 215 54 q 597 160 597 91 l 597 171 q 592 240 597 205 q 688 517 592 392 q 784 650 784 569 l 784 730 q 773 773 784 735 l 773 789 q 768 880 773 817 l 779 880 q 832 837 804 880 l 859 842 l 912 842 q 960 816 960 832 q 991 773 981 816 q 970 720 970 730 l 970 693 q 1040 677 970 681 q 1141 832 1078 694 q 1131 859 1141 841 q 1152 880 1143 880 l 1146 907 l 1146 917 l 1152 928 q 1146 933 1146 928 l 1179 933 q 1200 949 1179 947 z "}," ":{"ha":345,"x_min":0,"x_max":0,"o":""},"!":{"ha":522,"x_min":7,"x_max":484,"o":"m 374 955 l 418 955 l 418 941 q 389 883 418 930 q 432 840 426 840 q 484 831 473 831 l 484 826 q 446 807 484 817 l 446 783 l 432 793 q 404 683 413 696 q 408 677 408 683 q 374 659 374 667 q 394 630 381 659 q 379 568 389 591 q 441 324 420 522 l 441 319 l 432 233 q 437 191 437 208 q 379 123 437 144 q 241 -43 287 59 q 107 -172 107 -142 q 83 -258 104 -258 q 16 -186 16 -231 q 26 -153 16 -178 l 21 -153 q 12 -177 12 -169 l 7 -177 l 7 -172 q 26 -130 7 -157 l 16 -130 l 35 -106 l 26 -111 l 21 -111 q 117 -5 21 -102 q 145 81 145 61 q 88 138 145 87 q 83 134 83 138 l 50 153 l 54 162 l 50 162 q 35 157 41 157 l 40 167 q 21 176 21 167 l 35 176 l 35 186 q 12 229 20 229 l 12 233 l 21 233 l 21 239 l 12 239 l 12 243 l 21 243 l 21 248 l 12 248 l 12 253 q 35 310 26 253 q 40 315 40 310 q 16 358 16 340 q 31 458 16 375 q 26 496 31 470 q 35 539 31 529 l 31 539 q 26 534 31 534 l 26 539 q 45 553 26 551 l 45 558 l 35 558 q 64 644 64 576 l 83 683 l 74 683 q 184 888 74 703 q 332 941 252 941 q 374 955 332 951 m 320 637 l 325 637 l 325 627 l 320 627 l 320 637 m 325 627 l 330 627 l 330 618 l 325 618 l 325 627 z "},"\"":{"ha":1279,"x_min":0,"x_max":1249,"o":"m 983 962 q 1019 897 994 962 q 1141 847 1099 847 q 1249 876 1150 847 q 1170 661 1170 815 q 1004 553 1097 553 q 890 380 952 406 l 883 380 q 947 180 926 305 q 990 129 990 163 q 983 108 983 115 l 940 108 l 926 115 l 926 108 q 861 230 886 108 q 797 287 848 230 l 789 287 q 775 230 775 237 l 775 222 q 811 194 796 222 l 811 186 q 761 158 800 158 q 797 58 761 81 l 797 22 q 775 0 797 12 l 768 0 q 675 94 675 0 q 646 158 657 158 q 610 108 610 115 q 625 94 625 105 l 625 86 q 581 50 611 60 q 337 136 337 50 q 201 222 337 194 q 50 287 92 287 l 22 287 l 7 280 l 0 294 l 0 301 q 72 366 0 356 q 330 280 131 366 l 330 287 q 301 395 301 370 l 301 438 q 531 718 301 654 q 768 804 617 718 q 789 811 782 811 l 833 804 q 962 940 962 876 l 983 962 z "},"#":{"ha":820,"x_min":0,"x_max":794,"o":"m 372 965 l 378 965 q 470 898 456 898 q 568 861 568 884 q 629 873 613 873 q 642 855 635 855 q 617 794 635 823 q 678 648 633 678 q 788 421 788 532 q 776 348 788 402 q 794 262 794 308 l 794 238 q 574 79 794 142 q 433 49 516 49 q 372 61 418 49 q 122 0 319 28 q 43 61 43 0 q 153 104 43 90 q 171 98 159 104 q 250 134 208 98 q 226 171 239 134 q 232 195 232 182 l 232 201 l 226 201 q 0 262 0 225 l 0 275 q 55 323 0 323 q 201 293 145 293 l 232 293 q 330 360 273 334 l 348 452 l 311 452 q 189 470 197 470 l 134 470 l 73 452 q 49 470 49 461 l 49 476 q 146 538 49 527 q 336 599 317 583 q 372 703 336 673 q 342 776 342 730 q 372 867 342 790 q 366 947 372 871 q 372 965 372 958 m 501 159 l 513 159 q 635 208 573 159 l 629 208 q 507 171 589 191 l 501 159 z "},"$":{"ha":1480,"x_min":0,"x_max":1432,"o":"m 0 965 l 23 965 q 298 735 132 735 l 330 735 q 705 819 429 735 q 865 835 791 835 q 1042 797 963 835 q 1049 819 1042 819 q 1034 888 1042 872 q 1065 942 1039 942 q 1156 858 1091 941 l 1202 858 q 1310 835 1220 858 q 1409 911 1354 911 q 1432 858 1428 911 q 1409 712 1417 806 q 1425 644 1425 655 l 1310 452 q 1172 283 1298 402 q 1118 168 1118 194 l 1118 153 q 1156 100 1144 130 q 1103 69 1149 69 q 1049 115 1074 69 l 1049 153 q 1042 298 1049 215 q 1049 330 1049 312 l 1042 330 q 958 153 958 278 l 981 69 l 981 54 q 965 38 981 38 q 873 92 873 38 q 804 414 864 414 q 728 283 753 414 q 712 253 728 253 q 789 199 712 225 q 804 214 791 214 l 812 214 l 850 207 q 789 146 838 146 q 590 298 590 187 l 590 321 l 574 321 q 406 199 568 273 q 375 100 375 146 q 414 46 385 75 q 360 0 414 0 q 291 54 319 0 q 368 414 291 271 q 383 521 383 471 l 383 635 q 123 720 297 635 q 0 958 0 878 l 0 965 z "},"%":{"ha":1669,"x_min":0,"x_max":1556,"o":"m 1485 974 l 1501 974 l 1501 966 q 1476 878 1501 938 q 1548 694 1529 813 q 1556 671 1556 694 q 1485 606 1556 657 l 1429 614 l 1397 614 l 1397 574 q 1301 391 1397 505 l 1293 335 l 1293 328 q 1301 263 1293 294 q 1293 199 1293 233 l 1293 191 q 1341 144 1293 186 l 1341 120 q 1277 56 1315 72 l 1261 64 q 1229 56 1243 64 q 1133 191 1190 56 l 1118 199 q 1109 136 1118 167 q 1158 96 1131 136 q 1093 40 1158 58 q 1061 56 1061 46 q 910 40 998 40 l 878 40 q 743 80 795 40 q 288 0 526 56 q 0 104 144 0 l 0 120 q 32 144 0 140 q 288 96 217 96 q 535 184 327 96 q 663 199 627 199 l 718 191 l 718 256 q 703 415 718 335 q 894 718 703 642 q 989 734 949 734 l 1021 734 q 1093 726 1050 734 q 1237 862 1104 726 q 1413 926 1365 926 q 1485 974 1413 934 z "},"&":{"ha":1874,"x_min":0,"x_max":1834,"o":"m 410 819 q 418 784 410 800 q 392 703 418 759 q 446 632 446 666 q 659 686 553 686 l 828 686 q 953 694 877 686 l 1265 632 q 1558 401 1367 597 q 1692 321 1692 374 l 1674 285 q 1834 125 1834 176 l 1834 98 q 1781 62 1823 98 q 1594 222 1746 62 q 1496 205 1559 205 l 1470 205 q 1398 231 1404 205 l 1398 250 l 1416 250 l 1416 267 l 1389 267 l 1389 214 q 1220 0 1306 0 q 1194 26 1207 0 l 1194 54 q 1255 187 1194 77 q 1042 258 1174 187 l 1015 258 l 828 231 q 694 258 694 243 l 436 205 q 365 178 402 178 l 356 178 q 267 250 267 178 q 169 365 191 250 q 26 606 26 507 l 54 650 q 0 766 0 725 l 0 802 l 9 802 q 125 757 16 802 q 258 784 179 774 q 302 766 302 774 q 410 819 381 819 z "},"'":{"ha":991,"x_min":0,"x_max":962,"o":"m 878 962 l 886 945 q 869 878 869 914 q 954 694 954 753 l 954 644 q 895 527 954 588 l 895 418 q 869 351 895 393 q 962 209 869 315 l 962 193 q 853 42 903 42 q 786 83 809 42 l 786 92 q 861 125 786 113 l 878 159 q 761 259 878 180 l 753 259 l 753 201 q 769 134 769 141 q 577 25 769 96 l 568 25 l 527 33 q 485 0 527 22 q 435 33 435 17 l 435 50 q 469 75 435 58 q 351 284 388 275 q 226 159 338 284 q 184 142 226 142 l 159 142 q 125 176 146 142 l 125 184 q 201 218 125 205 q 243 318 243 293 l 142 385 q 25 543 68 385 q 0 686 0 625 l 8 686 q 92 627 79 627 l 168 635 l 226 627 q 293 686 226 637 l 301 686 q 309 669 301 669 l 301 652 l 301 593 q 359 552 306 574 q 535 610 493 610 q 794 593 687 593 q 869 669 869 593 l 869 677 q 828 861 869 715 l 828 903 q 878 962 828 962 m 493 284 q 518 125 518 155 l 518 100 l 543 100 q 669 142 669 111 q 585 268 644 268 q 493 284 498 284 z "},"(":{"ha":1927,"x_min":0,"x_max":1900,"o":"m 204 456 q 374 361 269 451 q 416 368 380 361 l 463 361 q 517 381 497 381 l 551 381 q 559 374 559 381 q 865 450 733 450 l 920 450 q 1042 416 993 450 q 1131 429 1073 429 l 1164 429 q 1341 381 1215 429 q 1641 252 1506 381 q 1866 211 1777 218 q 1900 177 1900 183 l 1900 157 l 1893 123 q 1777 116 1813 116 l 1757 116 l 1662 136 q 1294 109 1662 117 q 1117 89 1294 100 q 1001 116 1033 96 l 1001 109 q 1028 47 1001 89 q 940 0 1010 0 l 933 0 q 906 7 918 0 q 879 0 894 0 l 865 0 q 851 14 851 0 q 777 0 825 0 q 708 61 730 0 q 388 27 560 61 l 313 27 q 136 68 208 27 q 0 170 75 68 q 75 197 36 197 l 116 197 l 163 191 q 224 300 163 215 q 170 436 170 397 l 170 450 q 204 456 193 450 z "},")":{"ha":1404,"x_min":0,"x_max":1368,"o":"m 867 947 q 1019 804 904 941 q 1090 823 1052 823 l 1100 823 q 1180 795 1146 823 q 1350 930 1276 930 q 1368 912 1368 927 l 1368 859 q 1252 474 1334 572 q 1154 313 1191 452 q 1064 268 1104 268 q 957 286 974 286 q 894 250 957 266 q 814 161 894 173 l 760 161 l 769 116 q 652 0 769 77 q 519 81 532 0 q 500 98 500 81 q 536 205 536 191 l 474 205 q 197 277 218 277 q 474 107 258 222 q 509 45 509 67 l 500 45 q 0 438 0 189 q 590 724 0 650 q 849 652 690 724 l 867 680 q 840 795 840 723 l 840 894 q 867 947 846 947 z "},"*":{"ha":1282,"x_min":0,"x_max":1256,"o":"m 1015 950 l 1015 934 q 958 813 958 847 q 1006 684 1006 701 q 998 636 998 642 q 1015 588 1015 610 q 926 515 977 515 l 926 475 q 1095 418 926 438 q 1119 387 1111 387 q 1095 362 1119 362 l 1095 354 l 1224 354 q 1256 322 1236 354 l 1256 298 q 982 233 1256 247 q 813 210 861 210 q 717 290 745 210 q 604 210 662 267 q 636 145 636 176 l 628 104 q 869 56 715 73 l 869 32 q 732 0 789 0 q 596 24 692 0 q 330 16 446 16 l 306 16 q 0 185 36 16 l 0 218 q 113 572 12 361 q 210 644 170 644 l 241 636 q 403 684 323 684 l 443 684 q 652 636 521 684 q 644 644 652 644 q 652 652 644 652 l 644 692 l 644 732 q 717 789 644 779 q 1015 950 717 800 z "},"+":{"ha":741,"x_min":0,"x_max":734,"o":"m 248 944 q 425 872 346 872 l 431 872 q 464 928 431 905 l 480 928 q 574 806 522 904 l 557 751 l 557 745 q 629 602 557 704 q 646 541 646 559 l 646 503 q 629 436 646 486 q 685 221 663 279 l 707 227 q 734 193 734 218 q 679 138 679 157 q 608 105 650 105 q 508 227 592 105 q 469 182 469 218 q 359 100 424 125 l 342 72 q 403 22 403 55 q 348 0 378 0 q 188 116 188 45 q 210 144 195 116 q 94 221 210 178 q 0 348 0 280 q 72 469 0 407 l 83 469 l 83 458 q 44 348 44 366 q 188 260 44 281 q 364 585 216 419 q 276 724 307 585 l 276 740 q 287 784 276 745 q 237 928 270 873 q 248 944 243 944 m 547 326 q 580 287 560 287 q 596 254 596 273 l 591 243 q 608 221 608 243 l 618 221 q 563 342 613 241 l 557 342 q 547 326 547 342 z "},",":{"ha":1725,"x_min":0,"x_max":1705,"o":"m 1605 964 l 1609 964 q 1626 948 1617 964 l 1626 937 q 1615 884 1626 927 q 1684 779 1653 871 q 1705 699 1684 727 l 1705 677 q 1609 630 1683 630 q 1509 662 1525 662 l 1499 662 q 1377 535 1462 662 q 1308 471 1308 476 q 1382 317 1308 404 l 1409 323 q 1461 260 1461 323 l 1461 249 l 1440 233 l 1424 233 q 1392 217 1419 217 l 1371 217 q 1318 254 1371 254 q 1313 260 1318 260 l 1308 249 l 1308 228 l 1334 196 q 1324 185 1334 185 l 1313 185 l 1303 191 q 1276 159 1295 169 l 1271 159 l 1276 170 q 1260 175 1265 175 l 1260 206 q 1234 243 1234 239 l 1239 281 q 1143 387 1238 290 q 1090 492 1133 399 l 943 535 q 953 477 953 507 q 921 445 943 445 q 863 566 863 445 q 805 741 815 723 q 768 752 784 741 q 747 747 758 747 q 736 773 736 764 l 726 773 q 699 720 699 761 q 773 503 709 702 q 768 498 768 503 q 662 519 748 498 q 551 455 662 488 q 455 402 486 437 l 455 397 q 519 291 457 358 q 566 264 566 274 l 566 260 l 562 260 l 535 264 q 530 233 530 237 q 460 264 475 264 q 455 260 460 260 q 381 471 381 370 q 535 614 458 519 l 535 619 q 530 673 535 645 q 540 715 540 712 q 513 762 540 760 q 296 471 437 762 q 68 291 199 291 q 0 339 0 307 q 100 355 10 347 q 260 667 155 391 q 492 852 334 795 q 842 937 752 937 l 858 937 q 1181 821 1003 937 q 1234 815 1227 815 q 1430 905 1430 848 l 1430 911 l 1467 911 q 1472 905 1472 911 q 1583 958 1495 905 q 1605 964 1592 964 m 726 762 l 757 736 l 768 741 l 779 741 l 779 730 l 805 736 q 863 530 805 726 q 858 513 858 519 q 921 328 892 448 q 948 264 939 264 q 1228 281 1109 281 l 1228 238 q 958 222 1118 228 q 953 217 958 217 q 964 185 964 195 l 1255 185 q 1260 164 1255 174 l 1250 164 q 1271 153 1250 153 l 1271 149 q 1048 143 1130 143 l 979 143 q 1017 0 979 132 l 996 0 q 979 26 983 0 l 953 21 q 937 37 953 28 l 932 37 l 921 32 q 884 138 899 138 l 694 138 q 609 143 663 138 l 598 138 q 307 159 456 143 l 307 164 q 323 175 307 175 q 291 206 323 179 l 296 206 l 873 191 l 873 196 q 858 217 866 217 l 619 217 q 530 222 591 217 q 540 254 540 244 l 583 254 q 588 260 588 254 q 593 254 593 260 l 619 260 l 852 260 q 709 726 773 529 l 709 747 q 726 762 709 754 m 1583 296 l 1583 260 q 1477 254 1512 254 l 1467 254 l 1472 264 q 1467 286 1467 274 l 1477 286 q 1583 296 1530 286 m 286 270 q 445 264 399 264 q 492 249 445 254 q 519 233 492 233 l 519 222 l 455 222 q 296 228 402 222 l 296 233 q 313 243 296 243 l 313 249 q 286 264 286 253 l 286 270 m 1503 206 l 1503 185 q 1488 175 1488 185 q 1493 170 1493 175 q 1281 149 1493 157 q 1339 185 1305 185 q 1345 191 1339 191 l 1366 191 q 1503 206 1458 191 z "},"-":{"ha":1101,"x_min":0,"x_max":1064,"o":"m 58 955 l 327 846 q 385 787 378 819 q 494 804 481 795 q 562 787 537 787 q 745 812 680 812 q 905 612 883 812 q 955 427 905 587 l 955 377 q 670 42 890 179 q 503 0 566 0 l 469 0 l 469 8 q 612 100 469 23 q 838 435 838 288 l 821 435 q 754 352 821 404 q 570 402 665 385 q 536 444 545 444 l 528 444 q 435 310 487 444 q 285 268 435 293 l 210 226 q 151 235 176 235 l 151 252 q 243 343 151 293 l 243 352 l 226 352 l 117 293 q 67 335 83 304 q 168 385 100 385 l 310 562 q 277 620 283 562 l 226 620 q 134 595 144 595 q 75 637 80 616 l 84 678 l 75 762 q 100 838 100 814 q 58 955 100 857 m 1022 511 l 1022 486 q 1005 452 1005 465 q 1047 377 1047 405 q 1030 327 1030 349 q 1064 277 1064 284 l 922 252 q 972 368 972 343 l 972 410 l 963 494 q 1022 511 979 494 m 528 419 l 536 419 q 762 335 536 378 l 795 360 l 804 360 q 562 168 722 168 q 33 25 207 84 l 75 75 q 17 117 75 89 l 25 159 l 25 235 q 0 252 0 235 l 0 285 l 58 293 l 134 277 l 125 235 q 184 210 156 210 l 218 210 q 444 285 276 252 q 528 419 501 419 m 335 377 l 335 368 l 352 368 q 377 385 352 385 l 377 402 q 335 377 349 377 z "},".":{"ha":793,"x_min":14,"x_max":737,"o":"m 410 928 q 439 859 433 928 l 469 859 q 688 602 595 859 q 727 503 688 578 q 737 452 737 486 l 737 363 q 638 136 737 199 q 490 7 638 7 q 252 -142 490 -102 q 153 -182 186 -182 q 14 -23 14 -146 q 103 76 43 45 l 153 76 q 222 26 222 76 l 232 26 q 261 56 246 26 q 202 195 215 56 q 232 235 217 235 l 222 254 l 222 274 q 340 463 271 463 l 370 522 q 331 552 331 537 q 351 572 351 552 l 351 611 q 311 641 311 611 l 311 710 q 370 839 311 789 q 410 928 377 920 z "},"/":{"ha":1765,"x_min":43,"x_max":1719,"o":"m 1537 494 l 1537 483 l 1527 376 q 1548 259 1548 265 q 1452 163 1500 190 l 1431 174 l 1399 174 l 1399 152 l 1474 142 l 1591 142 q 1634 99 1608 142 l 1634 77 l 1623 56 l 1634 56 q 1666 66 1655 66 q 1719 24 1714 46 l 1719 -8 q 1666 -40 1719 -26 q 1292 14 1637 -22 q 1196 56 1235 56 q 1111 45 1152 56 l 1036 56 q 694 45 861 45 l 651 45 q 641 56 641 45 q 459 -19 530 -8 l 448 -72 l 459 -147 l 427 -168 l 406 -168 q 353 24 353 -168 q 203 -94 282 24 l 160 -125 l 139 -125 l 106 -104 q 363 174 106 -42 l 374 195 l 331 195 q 106 66 312 195 q 54 56 89 56 l 43 77 q 416 280 212 280 q 865 397 493 345 l 886 397 q 1121 355 1002 387 q 1324 440 1324 404 q 1345 462 1327 462 l 1356 462 l 1399 430 l 1420 430 q 1537 494 1455 430 z "},":":{"ha":1676,"x_min":0,"x_max":1623,"o":"m 794 942 l 820 942 q 1282 681 1090 942 q 1571 165 1437 165 q 1623 104 1623 119 q 1596 96 1606 96 q 1309 384 1415 96 q 1187 619 1187 602 l 1169 619 q 1108 471 1169 572 l 1108 463 q 1160 401 1160 419 q 1073 165 1126 165 l 1065 165 l 1004 174 q 812 35 880 35 l 803 35 q 742 61 774 35 q 846 122 742 90 q 916 235 916 175 q 855 541 890 390 l 820 541 q 689 366 689 475 q 628 70 689 70 l 602 70 q 550 96 557 70 q 619 192 599 144 q 585 332 585 302 l 567 332 q 410 122 512 122 q 35 0 265 70 q 0 43 0 9 q 210 157 0 94 q 366 262 363 250 q 332 393 366 327 q 210 305 288 393 q 174 296 174 305 q 87 401 87 317 q 70 427 82 401 q 96 576 96 547 q 70 646 70 638 q 96 654 87 654 q 140 637 124 637 l 140 698 l 149 742 l 165 742 q 262 654 242 654 l 288 654 q 567 785 506 654 q 794 942 711 942 m 1056 340 l 1038 235 q 1065 305 1065 241 l 1065 340 l 1056 340 z "},";":{"ha":1421,"x_min":0,"x_max":1401,"o":"m 1369 941 l 1388 941 q 1401 928 1401 939 l 1401 921 q 954 584 1212 667 l 947 571 q 1025 428 985 571 q 1219 117 1207 214 l 1200 104 l 1174 104 q 1044 260 1174 192 l 1031 260 q 973 175 1031 175 l 966 188 q 979 253 973 241 q 902 318 979 318 q 766 382 780 382 l 759 382 q 473 273 473 350 q 422 45 463 260 q 344 0 391 0 l 337 0 q 324 13 324 0 l 324 26 q 376 97 376 62 q 331 286 376 230 q 240 233 314 248 q 26 188 130 233 l 20 188 q 0 208 10 188 q 78 266 0 249 q 227 331 227 315 q 188 441 205 441 l 182 441 l 142 435 q 91 467 91 452 q 136 610 92 527 q 117 662 117 636 q 331 551 277 618 q 370 538 352 538 q 584 616 401 538 q 707 635 682 635 q 857 623 760 635 q 1226 817 1053 698 q 1369 941 1280 878 z "},"<":{"ha":743,"x_min":0,"x_max":700,"o":"m 53 965 q 175 822 160 965 l 175 795 q 149 663 175 745 q 159 642 153 642 q 329 658 274 658 q 536 557 464 658 l 536 562 l 519 615 l 519 621 q 636 578 565 578 q 684 621 654 621 q 700 504 700 596 q 636 339 700 450 q 557 260 636 331 q 668 79 613 79 l 673 53 l 658 43 l 647 43 q 536 154 587 43 l 530 154 l 525 101 q 578 32 525 56 l 578 16 q 546 0 572 0 l 541 0 q 435 318 469 0 q 323 403 354 403 l 318 403 q 218 233 318 384 q 302 122 230 195 l 302 101 q 276 85 302 89 q 154 228 245 85 q 149 244 149 238 l 138 244 q 159 159 145 174 l 159 143 q 143 127 159 136 l 132 127 q 85 323 97 127 q 117 393 117 373 l 117 403 q 74 498 117 413 l 74 530 q 96 572 81 570 l 90 636 l 90 642 q 106 822 106 806 q 0 928 106 928 l 0 939 q 53 965 0 953 z "},"=":{"ha":1540,"x_min":0,"x_max":1498,"o":"m 459 951 l 465 897 l 465 875 q 634 684 607 686 q 705 629 686 629 q 1116 492 852 591 q 1132 514 1132 492 q 1192 722 1132 686 l 1219 722 q 1329 607 1307 722 l 1329 591 q 1274 427 1329 482 l 1269 427 l 1263 459 q 1280 585 1280 538 l 1280 596 q 1241 662 1280 648 q 1198 470 1206 662 q 1187 448 1187 470 q 1296 290 1227 438 q 1367 252 1320 266 q 1487 142 1445 155 l 1498 125 q 1482 93 1498 98 l 1476 93 q 1345 180 1453 93 l 1345 175 l 1421 38 q 1394 0 1410 0 q 1323 120 1369 0 q 1312 137 1312 120 l 1274 137 q 1105 197 1150 137 q 913 290 1025 290 q 596 427 734 334 q 476 459 509 459 q 399 437 422 437 l 394 437 l 115 492 q 0 536 0 503 l 0 541 q 38 580 0 580 q 191 552 109 552 l 257 552 l 257 557 q 82 629 94 629 q 44 656 60 629 l 44 667 l 50 694 l 71 694 l 191 645 q 345 618 304 618 q 394 667 359 618 l 394 673 q 284 705 362 696 q 257 755 257 747 q 339 859 311 859 q 443 951 381 859 l 459 951 z "},">":{"ha":1097,"x_min":0,"x_max":1068,"o":"m 117 962 q 137 937 137 957 q 66 845 66 854 q 61 825 61 836 q 314 633 61 735 l 319 633 l 491 637 q 749 501 610 637 q 795 491 782 491 l 921 511 q 1017 476 939 511 l 1042 471 l 1042 466 l 1032 450 l 1032 446 q 1068 425 1068 435 l 1068 420 q 1013 370 1013 420 q 951 304 966 304 q 896 334 913 317 q 830 218 830 266 q 977 41 879 134 q 982 20 982 32 q 951 0 977 0 q 865 81 929 0 q 703 283 737 193 l 693 288 l 693 283 l 699 248 q 602 162 670 162 q 582 177 582 170 q 643 238 582 206 q 597 344 612 336 q 456 385 501 385 l 415 385 q 294 278 316 306 q 354 212 309 230 l 354 197 q 339 182 354 193 q 233 294 282 182 l 228 294 q 117 228 117 282 q 106 208 106 228 q 127 197 119 197 l 127 172 q 111 157 127 165 q 56 203 56 159 q 132 349 85 349 q 218 486 218 400 q 253 577 238 547 q 0 820 0 673 l 0 835 q 117 962 0 906 z "},"?":{"ha":1262,"x_min":13,"x_max":1215,"o":"m 273 955 l 295 955 q 531 817 463 955 q 545 775 545 788 l 559 775 q 594 743 583 775 q 559 715 586 715 q 464 810 522 715 q 319 867 399 867 l 305 867 q 175 807 175 850 q 295 733 175 787 q 464 475 464 623 q 513 359 479 390 q 576 335 553 335 l 591 335 q 686 363 655 363 l 690 363 l 690 359 l 760 406 q 799 483 760 412 l 802 483 l 812 448 l 812 416 q 932 391 865 412 q 950 380 950 390 l 950 331 q 904 278 950 293 q 865 239 899 278 q 817 212 817 217 l 817 208 q 943 173 817 192 q 1137 120 1097 120 l 1172 120 q 1215 92 1191 120 l 1215 88 q 1197 53 1215 70 l 1193 53 l 1193 60 l 1186 60 q 1168 50 1175 50 q 1137 67 1137 57 q 1088 56 1114 56 l 1063 56 q 950 71 1029 56 q 918 64 927 64 l 865 64 q 746 60 819 64 q 665 85 687 85 q 587 77 612 77 q 313 183 462 77 q 221 257 248 257 q 196 204 196 235 l 196 183 q 210 127 196 127 q 252 92 252 121 q 273 71 268 92 q 252 42 273 57 q 245 50 252 50 q 207 35 227 35 q 115 165 131 35 q 83 264 83 256 q 94 331 94 309 l 94 342 q 34 518 94 380 q 13 613 20 549 q 73 793 13 689 l 69 825 q 140 920 69 868 q 273 955 202 955 z "},"@":{"ha":787,"x_min":0,"x_max":762,"o":"m 574 962 q 716 866 644 962 q 747 751 747 800 l 747 739 q 686 509 747 667 l 709 421 q 705 326 705 364 q 755 222 705 312 q 762 161 762 182 q 728 65 762 81 l 705 65 q 678 81 684 65 l 678 84 q 705 130 678 98 q 709 153 705 148 q 705 165 705 161 l 709 165 q 625 211 709 195 q 513 307 572 229 l 506 307 q 475 245 501 307 q 460 222 471 245 q 471 184 460 220 q 322 81 471 153 l 279 81 q 249 107 249 81 l 249 111 q 272 126 257 126 q 295 123 292 123 q 376 191 376 162 l 376 199 q 345 307 351 254 l 307 307 l 260 311 q 214 180 249 288 q 134 16 134 53 q 92 0 114 0 l 77 0 q 50 16 56 0 l 50 23 q 65 50 50 43 l 61 69 q 100 96 61 87 q 107 142 107 122 l 107 146 q 65 337 79 206 q 4 506 4 422 q 23 640 4 544 q 0 713 4 689 l 19 789 q 7 878 7 843 l 7 892 q 16 901 9 901 l 31 901 l 84 854 q 130 862 111 862 l 134 862 q 191 850 164 862 q 264 889 252 889 q 272 881 272 888 l 272 878 q 241 781 272 862 q 257 720 257 742 q 249 667 249 680 l 249 663 l 322 663 q 597 606 465 663 q 617 602 604 602 q 674 724 674 633 l 674 770 q 555 931 674 888 l 555 950 q 574 962 555 959 z "},"A":{"ha":1015,"x_min":0,"x_max":988,"o":"m 79 962 q 237 699 237 962 l 237 672 l 250 672 q 632 659 343 672 q 711 777 688 659 q 699 896 699 848 l 711 896 q 830 857 806 857 l 857 857 q 988 909 880 857 l 988 896 q 962 817 988 873 q 988 738 988 774 l 988 724 l 949 593 l 962 566 q 830 277 946 425 l 830 158 q 804 53 804 64 l 804 0 l 711 0 q 540 263 616 263 q 395 277 512 263 q 290 172 352 277 q 395 66 395 73 l 369 53 l 316 53 q 184 105 279 89 q 119 263 119 235 q 172 355 172 285 q 105 514 134 416 q 145 724 145 642 l 145 751 q 79 896 125 896 q 39 804 57 896 l 26 804 q 0 830 0 804 l 0 857 q 79 962 0 935 m 738 197 l 738 184 q 751 145 751 159 l 764 145 l 764 184 l 738 197 z "},"B":{"ha":1193,"x_min":0,"x_max":1163,"o":"m 850 969 l 865 969 q 954 880 916 958 q 1133 954 1080 880 l 1163 969 l 1163 954 q 1059 626 1140 694 q 999 328 1044 397 q 1014 90 1014 176 q 1059 60 1014 60 l 1059 30 q 1014 0 1059 0 q 924 209 954 0 q 895 298 895 209 q 835 119 835 298 l 835 15 l 760 0 q 745 15 760 15 l 760 90 l 760 239 l 745 239 q 641 119 734 239 l 641 104 l 671 104 l 671 60 q 611 30 648 60 l 433 30 q 30 254 259 54 q 0 388 0 351 l 0 418 q 45 507 9 507 l 75 507 l 60 373 q 254 179 60 258 q 403 448 305 179 q 745 656 531 656 q 880 730 880 705 l 880 775 q 850 895 880 789 l 850 969 z "},"C":{"ha":1276,"x_min":0,"x_max":1251,"o":"m 76 945 l 92 945 q 183 823 112 945 q 244 808 217 823 q 427 930 290 814 l 442 900 l 442 823 l 412 717 q 427 671 427 687 l 442 671 q 793 717 719 717 q 1204 351 1204 616 q 1251 92 1204 218 q 823 0 1251 31 l 808 0 q 473 45 704 31 q 381 15 422 15 l 336 15 q 153 76 298 61 l 153 106 q 214 137 153 137 l 214 183 q 76 458 100 183 q 0 640 0 538 q 76 945 12 945 z "},"D":{"ha":1365,"x_min":0,"x_max":1339,"o":"m 982 967 q 1056 848 1017 967 q 1175 774 1086 848 l 1249 788 l 1249 774 l 1264 565 q 1234 491 1234 517 q 1309 313 1309 425 l 1279 134 q 1339 90 1339 126 l 1339 60 l 1264 45 q 1086 134 1169 45 l 1026 134 q 997 104 997 130 l 1011 15 l 937 0 l 922 0 q 610 104 686 104 q 253 134 275 134 q 30 75 83 134 l 0 75 l 0 119 q 357 283 6 171 q 625 595 552 590 l 788 595 l 818 580 l 818 595 q 788 684 788 644 q 967 878 788 774 l 982 967 z "},"E":{"ha":1963,"x_min":0,"x_max":1923,"o":"m 1691 972 l 1691 951 q 1649 803 1649 817 l 1670 592 l 1628 507 q 1691 317 1691 353 l 1775 317 q 1923 233 1889 317 l 1923 190 q 1754 21 1923 56 l 1754 0 l 1057 0 q 549 106 799 0 l 275 106 q 85 85 199 106 q 0 148 0 116 q 63 190 0 190 q 570 212 553 212 q 1057 507 635 507 q 1120 613 1105 507 q 1099 930 1099 879 l 1120 930 q 1268 867 1162 930 q 1691 972 1581 888 z "},"F":{"ha":681,"x_min":-3,"x_max":665,"o":"m 606 965 q 665 795 665 848 l 665 762 q 623 576 623 593 l 631 559 q 597 406 606 479 q 640 271 640 311 q 597 127 631 127 l 564 127 q 530 178 530 144 q 564 271 564 239 q 479 364 551 271 q 361 330 361 345 l 361 296 q 344 93 344 106 l 344 34 q 276 0 344 15 q 242 34 242 8 q 259 212 259 179 q 191 178 223 178 q 157 203 157 191 l 157 220 l 183 254 q 64 406 183 315 q 31 474 64 432 l 39 516 l 39 533 q -3 669 -3 654 q 64 770 31 762 l 98 753 q 352 812 218 753 l 361 812 q 327 720 327 762 l 327 694 q 513 703 454 703 l 581 703 q 606 838 606 795 q 589 957 606 876 l 606 965 z "},"G":{"ha":612,"x_min":0,"x_max":594,"o":"m 76 962 l 119 962 q 173 897 173 930 q 346 962 292 897 q 400 745 346 941 q 357 637 357 670 q 432 465 432 542 l 497 465 q 594 389 559 465 l 594 357 q 572 335 594 335 l 551 335 q 508 357 525 357 q 443 313 443 331 l 443 216 q 432 140 432 170 q 508 97 490 140 l 508 76 q 475 54 508 54 q 270 86 338 86 l 259 86 q 281 22 281 42 q 216 0 245 0 l 205 0 q 97 43 195 0 q 0 130 0 65 q 65 151 44 151 q 33 216 33 193 q 130 627 33 267 l 130 637 q 65 810 65 758 l 65 907 l 76 962 z "},"H":{"ha":578,"x_min":0,"x_max":535,"o":"m 535 972 q 437 577 489 577 l 451 549 l 451 451 l 352 85 q 380 56 380 80 l 380 28 q 352 14 352 28 l 268 56 q 212 0 268 0 q 71 155 189 0 l 71 113 l 98 71 l 42 42 q 0 56 15 56 l 0 395 q 56 535 0 427 q 42 577 42 562 l 56 577 q 85 535 85 577 l 113 535 q 127 577 113 550 q 28 958 75 649 l 42 958 q 155 887 119 958 l 296 901 l 310 901 l 408 887 q 535 972 458 972 m 239 169 l 239 141 l 254 71 l 268 71 q 296 155 268 109 q 281 212 281 180 q 239 169 262 212 z "},"I":{"ha":1352,"x_min":0,"x_max":1309,"o":"m 449 954 q 1047 823 700 823 q 1309 879 1255 879 l 1309 860 q 1178 561 1178 648 q 1028 243 1178 400 l 1028 224 q 1066 112 1066 163 l 1066 94 q 916 75 963 75 q 804 112 855 112 q 617 0 763 0 q 486 168 486 0 q 243 243 437 219 l 243 318 l 205 318 q 131 168 187 168 l 94 168 l 94 224 q 0 524 0 437 q 187 673 41 673 q 524 729 479 729 q 412 935 412 891 l 449 954 m 168 449 q 187 393 187 412 l 205 393 l 205 467 l 168 449 z "},"J":{"ha":783,"x_min":0,"x_max":768,"o":"m 532 968 q 515 890 515 911 q 567 803 543 871 l 593 803 q 715 951 652 951 q 768 916 750 951 q 663 768 663 831 q 689 715 689 759 q 576 567 576 665 q 524 515 553 530 q 480 314 524 505 q 524 253 524 302 q 471 157 524 216 l 471 149 l 558 149 q 585 122 571 149 q 541 87 581 104 q 445 96 481 96 l 393 96 l 393 87 q 463 35 463 41 l 463 26 q 436 0 463 14 l 401 0 q 271 87 321 0 q 305 149 296 149 q 218 253 305 162 q 87 235 210 244 q 0 271 0 244 l 0 288 q 79 375 0 355 l 87 357 l 43 305 l 43 288 q 70 279 70 288 q 253 375 253 279 q 332 654 256 490 l 332 785 q 532 968 332 893 z "},"K":{"ha":750,"x_min":0,"x_max":732,"o":"m 334 968 l 355 968 q 452 871 435 871 l 549 861 q 613 936 549 894 l 635 936 q 656 915 656 932 l 656 840 l 613 656 q 667 334 646 572 q 678 301 678 334 l 678 161 q 732 43 678 89 q 688 0 721 7 q 678 11 688 11 l 678 0 q 613 33 613 7 l 559 33 l 527 11 l 495 11 l 248 75 q 0 161 0 119 l 0 172 q 22 183 22 172 q 248 151 121 151 q 376 506 248 177 l 387 656 q 334 936 334 656 l 323 936 q 334 968 334 957 z "},"L":{"ha":902,"x_min":0,"x_max":878,"o":"m 733 965 l 772 965 q 878 840 859 965 q 782 685 878 773 l 791 666 l 791 589 q 743 367 791 544 l 743 241 q 656 87 743 87 l 627 87 l 627 116 q 675 193 675 153 l 675 212 l 666 212 q 589 96 666 155 l 541 96 q 531 125 541 106 q 608 222 608 173 q 570 328 608 234 l 395 328 q 367 125 386 168 q 376 39 376 73 l 376 19 q 357 0 376 0 l 309 0 l 290 9 l 299 77 l 299 241 q 280 222 280 238 l 280 77 q 222 9 280 9 q 183 19 205 19 l 183 58 q 222 87 222 58 l 222 106 q 87 502 191 289 q 29 656 87 555 q 0 782 29 691 l 0 810 l 9 810 q 87 782 39 810 q 260 849 189 782 l 270 849 l 270 753 q 290 705 273 705 q 666 762 380 762 l 705 762 q 801 859 801 781 q 772 897 787 897 l 753 897 q 714 840 714 878 l 705 840 q 685 859 685 840 l 685 897 q 733 965 685 946 z "},"M":{"ha":684,"x_min":16,"x_max":667,"o":"m 49 962 q 120 814 96 962 q 115 667 115 713 q 170 591 134 591 q 268 612 233 612 l 306 612 q 453 503 392 612 l 470 503 q 475 514 470 514 q 579 465 521 484 l 633 487 q 612 416 633 473 q 617 383 612 412 q 530 328 593 328 q 508 312 508 317 l 508 273 q 623 153 508 222 q 667 132 667 140 l 667 121 l 617 121 q 458 252 571 121 q 420 296 452 296 l 420 290 q 475 121 435 121 l 486 121 l 486 104 l 437 104 q 355 328 406 104 q 360 372 360 367 l 328 416 q 268 317 319 363 l 268 290 q 349 126 268 188 q 328 110 349 118 q 262 175 262 128 q 213 312 235 211 q 229 323 229 312 l 229 345 l 218 345 q 142 301 196 326 q 131 214 131 232 q 170 137 131 174 l 170 132 l 147 126 q 104 180 104 144 l 104 186 q 131 350 104 350 q 147 394 147 373 q 136 459 147 404 l 147 530 q 16 722 16 606 q 49 907 49 882 l 49 962 m 481 432 l 481 410 l 508 405 l 508 410 q 481 432 503 432 m 546 405 l 546 399 q 557 389 548 389 l 585 394 l 585 405 l 546 405 z "},"N":{"ha":849,"x_min":0,"x_max":829,"o":"m 713 965 l 734 965 l 761 938 q 666 823 761 912 q 632 734 646 797 q 747 530 632 662 q 774 414 774 464 q 768 319 768 330 q 829 68 829 161 q 761 27 821 46 q 727 7 761 7 l 700 14 l 700 20 q 720 68 700 43 q 585 231 720 106 q 524 306 571 281 l 496 306 q 353 163 419 306 l 279 41 l 211 0 q 156 27 156 14 q 224 88 224 78 q 238 163 238 115 l 238 177 q 102 286 102 214 q 0 394 54 286 l 7 435 q 0 503 7 444 l 34 496 l 47 496 q 109 517 74 517 l 149 517 l 177 537 l 184 537 l 184 503 q 211 475 184 492 l 218 475 q 401 605 218 560 q 551 598 431 605 q 585 618 585 607 q 551 720 557 675 q 713 965 551 834 m 136 374 l 136 360 l 142 360 l 142 374 l 136 374 m 122 367 l 122 353 l 129 353 l 129 367 l 122 367 z "},"O":{"ha":1401,"x_min":0,"x_max":1375,"o":"m 1119 600 l 1137 600 l 1163 582 q 1084 326 1163 389 l 1048 344 l 1040 300 l 1057 309 l 1066 309 q 1339 159 1297 309 q 1375 71 1375 101 l 1375 18 q 1357 0 1375 0 q 1260 159 1335 12 q 1154 212 1211 212 q 1048 203 1140 212 l 740 264 q 617 247 719 264 q 529 256 570 256 l 511 256 q 476 238 490 238 l 476 229 q 503 132 503 143 q 476 123 485 123 l 432 132 q 353 62 431 123 q 203 132 203 99 q 176 212 176 132 q 71 26 106 117 q 62 18 62 26 q 26 44 26 31 l 26 53 l 35 71 q 0 123 18 71 q 176 423 87 423 q 370 520 239 423 q 476 547 456 547 q 846 520 810 538 q 881 555 846 534 l 916 555 q 1057 441 977 555 l 1075 432 q 1119 600 1101 600 z "},"P":{"ha":1708,"x_min":0,"x_max":1669,"o":"m 1424 946 l 1467 946 q 1489 925 1489 943 l 1489 871 q 1360 744 1489 861 q 1563 670 1428 670 l 1594 627 l 1648 638 l 1669 638 q 1605 595 1669 616 l 1594 468 q 1637 414 1617 463 l 1616 404 l 1446 468 q 1286 372 1337 409 q 1010 298 1164 372 q 766 170 837 298 q 670 149 670 163 l 648 159 l 564 159 l 510 170 q 404 0 452 0 q 382 43 382 26 q 521 287 441 287 l 510 330 q 521 361 521 350 l 510 361 q 425 340 471 340 q 223 372 339 340 l 202 361 l 191 361 q 0 446 87 361 l 0 457 q 21 478 3 478 l 96 478 q 117 510 96 510 l 266 510 q 393 606 304 510 q 542 659 475 655 q 648 627 616 627 q 946 691 717 627 q 1042 702 984 691 l 1084 691 q 1201 712 1175 712 q 1191 744 1191 733 q 1371 861 1191 790 q 1424 946 1424 918 z "},"Q":{"ha":962,"x_min":0,"x_max":947,"o":"m 655 975 q 755 911 730 911 l 847 911 q 911 961 881 941 l 926 961 q 947 918 937 961 l 940 890 q 947 712 947 784 l 940 698 l 947 684 q 876 570 937 638 q 798 448 798 473 l 783 448 l 769 456 q 741 434 769 439 q 627 328 627 370 l 627 285 l 648 285 l 648 277 l 633 277 l 633 271 l 648 271 l 641 256 l 641 249 l 655 249 l 655 235 l 641 235 l 641 228 l 669 228 l 662 214 q 684 192 672 214 l 684 178 q 641 114 671 114 l 648 100 q 584 50 616 100 l 541 50 q 456 14 541 35 q 413 0 456 0 q 377 14 390 14 l 377 7 l 363 14 l 334 14 l 313 0 l 299 0 q 228 21 280 16 q 206 14 214 14 q 43 100 206 20 q 21 135 26 135 l 28 149 q 0 292 28 174 l 0 320 q 178 698 0 568 q 406 790 277 790 l 427 790 q 534 783 463 790 q 641 876 549 810 l 641 954 l 655 975 z "},"R":{"ha":870,"x_min":0,"x_max":842,"o":"m 711 965 l 749 965 q 804 884 804 965 q 829 810 829 884 l 829 804 l 817 761 q 835 693 829 743 q 785 551 835 673 l 785 489 q 842 347 785 347 l 842 309 q 798 266 812 309 l 736 260 q 680 272 696 272 l 581 272 q 452 266 532 272 q 384 285 393 285 l 371 285 q 229 167 229 243 q 62 0 125 5 l 12 0 q 0 12 0 0 l 0 37 q 87 161 0 60 q 204 328 155 328 q 315 384 204 343 l 315 507 l 309 545 q 402 773 318 636 q 545 842 486 842 l 551 854 l 551 866 q 545 891 551 880 q 711 965 545 965 z "},"S":{"ha":942,"x_min":0,"x_max":920,"o":"m 899 978 l 899 970 q 876 913 899 946 l 876 905 l 891 905 q 876 854 886 854 q 905 819 897 819 l 899 804 q 905 783 899 796 q 899 717 899 743 q 920 673 913 717 l 920 667 l 913 667 l 913 681 l 905 681 l 905 667 l 899 667 q 876 703 893 703 q 811 673 876 687 q 746 522 770 639 q 652 442 724 492 l 652 435 l 637 442 q 623 413 623 425 l 608 420 l 608 398 l 594 406 l 594 391 l 580 398 l 572 384 q 587 297 576 297 q 637 224 637 297 q 587 203 611 203 l 572 203 q 471 311 471 248 l 442 355 q 384 304 415 344 q 456 254 384 254 q 471 210 471 230 l 471 195 q 398 181 471 181 q 420 130 420 138 l 413 116 q 420 94 420 102 l 413 94 l 420 79 l 420 73 q 348 0 393 20 l 340 0 q 232 123 259 48 l 217 130 l 224 145 l 224 152 l 210 145 q 181 203 210 165 l 181 210 l 174 210 l 174 195 l 167 195 q 130 275 167 202 l 123 275 l 123 254 q 159 181 123 241 l 159 174 q 73 159 109 159 l 51 159 q 14 348 27 161 q 0 376 5 348 q 65 529 47 447 l 58 529 q 123 673 91 589 q 319 797 259 797 q 486 768 378 797 l 616 826 q 659 935 659 906 q 710 964 684 964 q 797 905 744 905 q 899 978 859 942 z "},"T":{"ha":1057,"x_min":0,"x_max":1026,"o":"m 140 968 q 191 886 165 968 q 323 811 268 829 q 397 836 368 836 l 414 811 l 414 753 q 406 745 414 745 l 431 703 q 414 687 414 701 l 414 671 q 496 646 474 667 l 513 654 l 538 654 l 538 646 l 522 646 l 522 637 l 555 629 l 547 612 l 563 612 l 555 596 q 629 563 555 578 l 629 547 l 612 555 l 604 555 l 604 547 l 662 530 l 662 522 l 629 522 l 629 513 q 679 496 673 496 l 671 480 q 720 447 703 447 q 712 414 720 429 q 753 339 753 355 q 745 315 745 323 q 795 240 772 304 q 1026 174 940 240 q 1018 165 1026 165 l 1026 149 l 1026 99 l 952 41 q 943 33 952 33 q 935 41 935 33 q 778 8 800 8 q 695 16 734 16 l 695 50 l 703 66 q 579 75 662 66 q 323 58 342 58 q 290 91 290 58 l 281 91 q 256 41 281 68 l 265 41 q 182 0 265 0 q 108 25 108 5 q 165 207 108 58 l 157 224 l 165 224 q 83 356 151 279 q 66 372 83 372 l 66 414 l 58 414 l 66 431 l 58 431 l 58 422 q 25 431 43 431 l 33 447 q 16 513 16 477 l 16 547 l 25 604 q 0 612 16 604 l 8 629 q 0 637 8 637 l 16 703 q 8 712 8 703 q 66 803 47 712 q 140 968 98 813 m 563 596 l 588 596 l 588 588 l 563 588 l 563 596 m 364 174 l 356 157 l 356 149 l 380 149 q 397 165 397 149 l 397 174 l 389 174 l 389 157 l 364 157 l 372 174 l 364 174 m 290 108 l 290 99 l 298 99 q 348 140 298 138 l 348 165 l 339 165 q 290 108 290 142 z "},"U":{"ha":1213,"x_min":0,"x_max":1196,"o":"m 856 969 q 960 908 933 908 l 1057 908 q 1170 969 1101 908 q 1196 960 1187 960 q 1118 620 1196 674 q 1039 401 1097 592 q 935 131 935 250 q 917 96 917 131 q 960 52 917 85 q 969 18 969 37 l 943 0 l 760 0 q 664 271 734 0 q 655 279 655 271 q 646 271 646 279 l 507 288 l 437 175 l 437 140 q 471 87 471 96 l 489 96 q 532 61 529 79 l 532 52 q 480 26 524 26 l 428 26 l 410 35 q 393 18 410 18 l 349 18 q 236 210 236 18 q 227 236 227 210 q 245 349 245 328 l 236 349 l 245 367 l 245 437 q 210 515 210 465 l 218 515 l 210 532 l 210 576 q 218 585 210 585 q 210 594 218 594 q 253 707 210 672 q 245 742 245 722 l 236 742 q 105 602 129 742 q 0 480 43 511 l 0 498 q 43 655 0 541 q 35 664 35 655 l 43 664 q 35 672 43 672 q 70 760 39 728 q 61 768 61 760 q 113 821 80 768 q 157 847 129 821 l 175 838 q 201 865 175 851 l 210 865 q 218 856 218 865 l 236 865 q 358 786 298 865 l 419 795 l 454 795 l 471 786 l 471 795 l 515 777 l 515 795 l 550 795 q 559 786 559 795 l 576 795 l 594 795 q 777 751 706 795 l 804 751 l 812 838 l 812 926 q 856 969 833 969 z "},"V":{"ha":496,"x_min":43,"x_max":475,"o":"m 324 962 l 330 951 l 330 918 q 319 843 330 901 l 324 816 q 319 756 319 787 l 399 621 q 459 524 406 581 q 475 481 475 497 l 475 357 q 394 243 445 243 q 281 174 281 215 q 227 -107 227 44 q 275 -210 227 -123 l 275 -226 q 216 -275 258 -275 l 189 -275 q 103 -69 103 -176 q 168 233 119 55 q 92 281 163 247 q 65 395 65 308 q 43 476 56 395 l 43 497 q 92 637 43 521 q 109 724 92 660 q 81 810 94 758 l 87 821 q 71 951 71 930 l 81 956 q 140 902 96 956 q 222 913 192 913 l 259 907 q 324 962 292 962 z "},"W":{"ha":1788,"x_min":0,"x_max":1758,"o":"m 1087 960 l 1112 960 q 1452 781 1325 960 q 1639 526 1503 734 q 1758 391 1758 448 l 1758 357 l 1715 357 q 1596 425 1657 399 q 1393 663 1496 498 l 1308 755 q 1299 671 1299 682 q 1435 501 1371 557 l 1444 441 l 1444 280 q 1367 127 1444 127 q 1341 144 1341 136 q 1358 323 1358 278 l 1358 340 q 1257 408 1358 408 l 1249 408 l 1249 399 q 1265 348 1265 371 q 1104 85 1187 85 l 1036 85 q 1019 102 1019 85 l 1019 119 l 1053 161 l 1070 153 l 1095 153 q 1138 272 1138 254 l 1138 289 q 926 475 1137 302 q 866 441 882 464 l 849 450 l 841 450 l 798 425 l 798 433 q 772 425 782 425 l 772 416 q 866 94 866 104 q 832 51 850 55 l 755 51 q 739 68 739 51 l 739 102 q 764 119 739 119 q 552 348 671 348 l 518 340 q 484 348 503 348 q 458 340 467 340 q 425 348 444 348 l 425 340 q 399 348 408 348 q 246 127 371 348 q 94 0 169 0 l 26 0 q 9 17 9 0 l 9 43 q 102 77 9 66 q 195 331 147 111 q 153 526 191 526 q 119 552 119 526 q 77 535 92 535 l 77 552 l 102 552 l 102 560 l 85 560 l 85 569 l 102 569 q 43 772 43 624 q 26 815 28 772 l 26 841 q 43 858 28 858 q 144 798 69 858 q 306 841 275 798 q 357 866 338 866 l 365 849 l 365 798 q 824 892 696 798 q 1087 960 996 960 m 60 560 l 77 560 l 77 552 l 60 552 l 60 560 m 34 552 l 51 552 l 51 543 l 34 543 l 34 552 m 17 543 l 34 543 l 34 535 l 17 535 l 17 543 m 0 535 l 17 535 l 17 526 l 0 526 l 0 535 m 127 484 l 136 484 l 136 458 l 127 458 l 127 484 z "},"X":{"ha":1302,"x_min":0,"x_max":1256,"o":"m 474 923 q 741 840 557 923 q 790 715 771 798 l 790 707 l 782 690 q 940 624 846 624 q 1123 765 1046 624 l 1156 815 q 1231 831 1186 831 q 1256 823 1247 823 l 1256 765 q 1131 541 1179 637 q 1256 233 1173 393 q 1215 175 1256 193 q 1139 283 1171 175 l 1090 275 q 1065 283 1074 283 l 1065 275 l 1048 283 l 1040 283 q 1006 233 1040 250 l 990 233 q 940 283 940 233 l 915 283 q 724 316 819 283 l 715 316 q 557 83 557 94 l 566 41 q 507 0 507 10 q 391 83 391 0 l 374 83 q 425 150 425 131 q 466 191 427 177 q 532 275 513 275 l 524 291 q 583 391 560 291 q 515 474 573 427 l 515 482 l 499 474 q 408 507 499 489 q 399 515 408 515 l 382 515 q 366 491 382 491 q 341 507 366 507 q 275 499 320 507 q 166 515 187 515 q 108 491 125 491 l 100 507 l 58 499 l 41 499 q 0 532 12 532 l 0 557 q 208 624 0 584 l 224 640 q 233 632 233 640 q 357 665 357 654 l 374 657 q 399 682 399 657 l 408 682 q 416 673 416 682 q 458 732 458 687 l 382 732 l 382 741 l 466 741 q 458 749 466 749 q 491 815 491 791 l 466 899 q 474 923 474 914 m 382 882 l 391 882 l 391 865 l 382 865 l 382 882 m 357 798 l 382 798 l 382 790 l 357 790 l 357 798 m 449 798 l 458 798 l 458 782 l 449 782 l 449 798 m 391 790 l 416 790 l 416 782 l 391 782 l 391 790 m 416 782 l 433 782 l 433 774 l 416 774 l 416 782 m 441 765 l 458 765 l 458 757 l 441 757 l 441 765 m 382 499 l 391 499 l 391 482 l 382 482 l 382 499 m 482 482 q 499 466 499 480 l 499 458 q 482 474 482 458 l 482 482 m 507 458 l 515 458 l 515 433 l 507 433 l 507 458 z "},"Y":{"ha":1087,"x_min":0,"x_max":1012,"o":"m 998 958 q 1012 945 1012 956 l 1012 885 q 939 579 1012 859 q 878 412 939 434 q 812 260 812 297 l 812 173 q 871 80 812 80 l 878 66 l 878 54 q 805 33 878 33 q 719 233 719 33 q 705 260 705 233 l 699 260 q 639 87 699 128 q 659 40 659 62 q 146 0 659 9 q 0 93 20 0 l 0 120 q 80 313 0 210 q 140 346 114 346 l 140 333 q 66 186 140 320 q 54 106 54 140 l 54 100 q 133 60 77 60 l 267 60 q 326 146 326 104 l 326 199 q 466 546 326 321 q 679 632 514 591 q 772 726 679 637 l 772 759 q 732 939 732 895 l 732 945 l 745 945 q 845 871 816 871 l 878 871 q 991 958 933 871 l 998 958 z "},"Z":{"ha":879,"x_min":0,"x_max":869,"o":"m 538 968 q 807 707 690 968 q 869 615 869 682 q 807 469 869 587 l 738 7 q 707 0 711 0 q 653 23 653 7 l 653 46 q 699 169 696 111 q 684 399 684 350 l 676 399 q 561 138 635 199 q 492 92 536 102 q 431 108 434 108 l 431 138 q 546 238 546 153 q 530 422 546 250 q 546 561 530 515 q 538 569 538 561 q 454 330 477 569 q 361 39 376 117 l 338 23 q 284 69 284 23 q 353 323 353 238 l 353 346 l 346 346 q 215 161 233 170 l 192 161 q 177 177 177 161 l 177 192 q 307 461 307 396 l 246 576 l 238 576 q 169 530 238 530 q 62 623 96 580 q 0 615 7 615 l 0 638 q 123 784 103 784 q 208 800 153 800 l 223 800 l 300 791 q 385 853 300 818 q 538 968 459 968 z "},"[":{"ha":1107,"x_min":0,"x_max":1061,"o":"m 113 976 q 178 882 170 882 l 244 892 q 272 882 262 882 q 338 948 272 912 q 357 920 357 948 q 328 685 357 843 q 441 723 355 709 q 807 469 501 723 q 892 432 857 432 q 1051 469 991 469 l 1061 450 l 1061 432 q 901 366 915 366 q 694 441 788 366 l 685 441 l 676 404 q 723 338 691 404 q 582 141 667 211 l 535 141 q 526 169 535 151 q 610 281 610 267 q 601 291 610 291 l 554 300 q 357 244 554 273 q 281 19 317 19 l 254 0 l 244 0 q 216 28 231 0 q 244 103 216 45 l 254 254 q 197 347 220 347 q 56 103 72 106 q 19 94 40 94 l 9 94 q 0 132 9 115 q 94 404 94 287 l 94 413 q 66 479 94 444 l 66 498 l 94 638 q 47 751 47 718 l 47 770 q 113 976 94 976 m 376 357 l 376 319 l 432 319 q 376 357 432 335 z "},"\\":{"ha":926,"x_min":-3,"x_max":895,"o":"m 545 668 q 784 533 662 656 q 871 246 871 459 q 895 151 884 246 q 752 -168 895 37 q 569 -271 643 -271 q 562 -247 562 -255 q 681 -136 562 -238 q 792 143 792 47 l 792 159 l 784 199 l 768 191 l 705 191 q 696 199 696 191 l 681 191 q 450 262 450 233 l 466 286 l 466 294 l 426 294 l 410 302 q 315 207 358 207 q 275 231 275 217 l 275 254 q 299 271 275 271 l 299 286 l 227 278 q 163 286 184 286 l 163 278 q 52 397 111 278 l 44 469 l 52 485 q -3 581 -3 555 l -3 596 l 28 596 q 116 541 103 541 l 132 549 l 148 541 q 347 636 201 541 l 387 636 l 387 621 l 545 668 z "},"]":{"ha":1461,"x_min":0,"x_max":1431,"o":"m 1191 692 l 1200 674 l 1200 628 q 1293 517 1221 628 l 1293 498 q 1237 378 1293 474 q 1301 184 1237 313 q 1421 92 1301 136 q 1431 37 1431 44 l 1413 28 l 1357 28 q 1173 138 1323 28 q 1061 157 1078 150 l 1061 148 q 1154 46 1154 92 l 1154 37 q 1108 0 1145 0 q 1015 46 1046 0 q 914 92 962 83 q 831 194 831 157 q 748 176 771 176 l 720 176 l 720 157 q 868 83 816 157 l 868 64 q 849 46 868 46 l 822 46 q 554 157 554 80 l 545 157 l 508 148 q 480 157 490 157 q 517 102 517 125 q 462 64 517 77 q 296 203 324 127 q 56 46 142 155 l 37 46 q 0 74 0 60 l 0 102 q 148 258 25 164 q 416 406 329 307 q 646 526 460 462 q 877 582 794 582 l 942 582 q 979 646 942 640 q 1006 637 996 637 q 1181 692 1181 665 l 1191 692 z "},"^":{"ha":1424,"x_min":40,"x_max":1375,"o":"m 150 1087 l 159 1083 l 167 1083 q 171 1087 171 1083 l 179 1083 l 191 1083 q 195 1087 195 1083 l 203 1083 l 216 1083 q 220 1087 220 1083 l 228 1083 l 244 1083 q 248 1087 248 1083 l 256 1083 l 264 1083 q 269 1087 269 1083 l 277 1083 l 289 1083 q 293 1087 293 1083 l 301 1083 l 313 1083 q 317 1087 317 1083 l 326 1083 l 342 1083 q 346 1087 346 1083 l 354 1083 l 362 1083 q 366 1087 366 1083 l 375 1083 l 387 1083 q 391 1087 391 1083 l 399 1083 l 412 1083 q 416 1087 416 1083 l 424 1083 l 440 1083 q 444 1087 444 1083 l 452 1083 l 460 1083 q 465 1087 465 1083 l 473 1083 l 485 1083 q 489 1087 489 1083 l 497 1083 l 509 1083 q 513 1087 513 1083 l 522 1083 l 538 1083 q 542 1087 542 1083 l 550 1083 l 558 1083 q 562 1087 562 1083 l 570 1083 l 583 1083 q 587 1087 587 1083 l 595 1083 l 608 1083 q 612 1087 612 1083 l 620 1083 l 636 1083 q 640 1087 640 1083 l 648 1083 l 656 1083 q 661 1087 661 1083 l 669 1083 l 681 1083 q 685 1087 685 1083 l 693 1083 l 705 1083 q 709 1087 709 1083 l 718 1083 l 734 1083 q 738 1087 738 1083 l 746 1083 l 754 1083 q 758 1087 758 1083 l 766 1083 l 779 1083 q 783 1087 783 1083 l 791 1083 l 803 1083 q 807 1087 807 1083 l 815 1083 l 832 1083 q 836 1087 836 1083 l 844 1083 l 852 1083 q 857 1087 857 1083 l 865 1083 l 877 1083 q 881 1087 881 1083 l 889 1083 l 901 1083 q 905 1087 905 1083 l 913 1083 l 930 1083 q 934 1087 934 1083 l 942 1083 l 950 1083 q 954 1087 954 1083 l 962 1083 l 975 1083 q 979 1087 979 1083 l 987 1083 l 999 1083 q 1003 1087 1003 1083 l 1011 1083 l 1027 1083 q 1031 1087 1031 1083 l 1040 1083 l 1048 1083 q 1053 1087 1053 1083 l 1061 1083 l 1073 1083 q 1077 1087 1077 1083 l 1085 1083 l 1097 1083 q 1101 1087 1101 1083 l 1109 1083 l 1126 1083 q 1130 1087 1130 1083 l 1138 1083 l 1146 1083 q 1150 1087 1150 1083 l 1158 1083 l 1171 1083 q 1175 1087 1175 1083 l 1183 1083 l 1195 1083 q 1199 1087 1199 1083 l 1207 1083 l 1223 1083 q 1227 1087 1227 1083 l 1236 1083 l 1244 1083 q 1248 1087 1248 1083 l 1256 1083 l 1281 1083 q 1375 1018 1375 1083 l 1375 -170 q 1297 -248 1375 -231 l 109 -248 q 44 -166 54 -248 l 44 -133 q 40 -129 44 -129 l 44 -121 l 44 -56 q 40 -52 44 -52 l 44 -43 l 44 -35 q 40 -31 44 -31 l 44 -23 l 44 42 q 40 46 44 46 l 44 54 l 44 62 q 40 66 44 66 l 44 75 l 44 140 q 40 144 44 144 l 44 153 l 44 161 q 40 165 44 165 l 44 173 l 44 238 q 40 242 44 242 l 44 250 l 44 258 q 40 262 44 262 l 44 271 l 44 336 q 40 340 44 340 l 44 349 l 44 357 q 40 361 44 361 l 44 369 l 44 434 q 40 438 44 438 l 44 446 l 44 454 q 40 458 44 458 l 44 467 l 44 532 q 40 536 44 536 l 44 545 l 44 553 q 40 557 44 557 l 44 565 l 44 630 q 40 634 44 634 l 44 642 l 44 650 q 40 654 44 654 l 44 663 l 44 728 q 40 732 44 732 l 44 740 l 44 748 q 40 752 44 752 l 44 761 l 44 826 q 40 830 44 830 l 44 838 l 44 846 q 40 850 44 850 l 44 859 l 44 924 q 40 928 44 928 l 44 936 l 44 944 q 40 948 44 948 l 44 956 l 44 1034 q 93 1083 44 1083 l 146 1083 q 150 1087 150 1083 m 52 1006 l 52 -158 q 105 -235 52 -222 l 1305 -235 q 1362 -178 1339 -235 l 1362 1022 q 1285 1075 1349 1075 l 121 1075 q 56 1038 56 1075 q 52 1006 52 1034 m 125 1067 l 1285 1067 q 1354 1018 1345 1067 l 1354 -174 q 1301 -227 1354 -208 l 109 -227 q 60 -158 60 -218 l 60 1002 q 89 1063 60 1063 q 125 1067 104 1067 m 93 1034 l 93 -191 l 1318 -191 l 1318 1034 l 93 1034 m 317 972 l 542 972 l 542 940 l 448 940 l 448 691 l 412 691 l 412 940 l 317 940 l 317 972 m 583 972 l 770 972 l 770 940 l 620 940 l 620 850 l 750 850 l 750 818 l 620 818 l 620 691 l 583 691 l 583 972 m 820 972 l 926 972 q 1019 895 1019 972 q 983 838 1019 871 q 1031 773 1031 823 l 1031 769 q 930 691 1031 691 l 820 691 l 820 972 m 857 940 l 857 854 l 934 854 q 983 899 983 854 q 897 940 983 940 l 857 940 m 857 822 l 857 724 l 938 724 q 991 765 991 729 l 991 781 q 901 822 991 822 l 857 822 m 424 581 l 546 581 l 546 565 q 538 557 546 557 l 493 557 q 465 426 474 426 l 448 426 l 469 557 l 428 557 q 420 565 420 557 q 424 581 424 572 m 570 581 l 628 581 q 689 545 689 581 q 640 495 677 495 l 640 491 q 677 426 656 491 l 656 426 l 616 491 l 578 491 l 566 426 l 542 426 q 570 581 550 455 m 730 581 l 746 581 l 754 577 q 734 467 750 568 q 770 442 734 448 q 828 581 815 442 l 844 581 l 852 577 q 774 422 835 422 l 762 422 q 713 458 713 422 l 713 471 q 730 581 713 491 m 889 581 l 995 581 l 1003 577 q 991 557 998 557 l 909 557 q 901 515 901 522 l 983 515 l 983 495 l 897 495 q 889 446 897 488 l 975 446 l 983 442 q 979 426 979 435 l 861 426 q 889 581 869 455 m 591 557 q 583 511 583 522 l 608 511 q 665 541 665 511 q 652 557 659 557 l 591 557 m 562 328 q 628 267 618 328 q 542 169 613 169 l 526 169 q 473 230 484 169 q 562 328 492 328 m 1023 328 q 1069 287 1069 320 l 1069 279 l 1044 279 q 1031 303 1044 303 l 995 303 q 979 287 989 303 l 979 271 q 1061 218 1061 258 l 1061 214 q 999 169 1044 169 l 987 169 q 938 210 938 169 l 938 226 l 954 226 q 970 193 959 226 l 991 189 l 995 189 q 1036 222 1036 189 q 966 250 1036 232 l 954 267 l 954 279 q 1023 328 962 328 m 362 324 l 469 324 q 465 303 465 317 l 383 303 l 375 262 l 436 262 q 444 254 444 261 q 440 238 440 248 l 370 238 l 358 169 l 338 169 l 338 173 q 362 324 338 193 m 669 324 l 689 324 q 742 218 697 324 q 766 324 751 218 l 791 324 l 762 169 l 738 169 q 689 279 689 272 l 685 279 l 665 169 l 644 169 l 644 173 q 669 324 644 193 m 815 324 l 938 324 l 938 312 q 930 303 938 303 l 885 303 q 857 169 865 169 l 840 169 l 840 173 l 861 303 l 811 303 l 815 324 m 497 226 q 538 189 505 189 q 600 250 600 195 q 604 267 604 250 q 566 303 598 303 l 550 303 q 497 226 506 303 m 428 71 l 489 71 q 534 34 534 71 q 509 1 527 1 q 530 -31 530 -20 q 469 -84 530 -76 l 399 -84 q 428 71 404 -75 m 574 71 l 591 71 l 600 66 q 574 -64 591 36 l 648 -64 l 648 -84 l 546 -84 q 574 71 550 -75 m 758 71 l 770 71 q 828 14 828 71 q 734 -88 819 -88 q 677 -23 683 -88 q 758 71 677 55 m 934 71 l 954 71 q 999 26 999 62 q 975 22 994 22 q 942 50 975 47 l 930 50 q 873 -19 884 50 l 873 -27 q 909 -64 873 -64 l 930 -64 q 966 -43 966 -56 l 966 -27 l 926 -27 l 926 -11 q 934 -3 927 -3 l 987 -3 q 995 -11 995 -4 q 918 -88 995 -88 q 848 -23 848 -88 q 934 71 848 56 m 448 50 q 440 5 440 11 l 469 5 q 509 34 509 5 l 509 38 q 456 50 509 50 l 448 50 m 701 -39 q 726 -64 709 -56 l 750 -64 q 803 1 795 -64 l 803 14 q 766 50 798 50 l 758 50 q 701 -23 701 41 l 701 -39 m 436 -15 l 428 -64 l 473 -64 q 505 -31 505 -64 q 481 -15 501 -15 l 436 -15 z "},"_":{"ha":1385,"x_min":7,"x_max":1339,"o":"m 117 1074 l 125 1070 l 133 1070 q 137 1074 137 1070 l 145 1070 l 157 1070 q 161 1074 161 1070 l 170 1070 l 182 1070 q 186 1074 186 1070 l 194 1070 l 210 1070 q 214 1074 214 1070 l 222 1070 l 231 1070 q 235 1074 235 1070 l 243 1070 l 255 1070 q 259 1074 259 1070 l 267 1070 l 279 1070 q 283 1074 283 1070 l 292 1070 l 308 1070 q 312 1074 312 1070 l 320 1070 l 328 1070 q 332 1074 332 1070 l 341 1070 l 353 1070 q 357 1074 357 1070 l 366 1070 l 378 1070 q 382 1074 382 1070 l 390 1070 l 406 1070 q 410 1074 410 1070 l 418 1070 l 427 1070 q 431 1074 431 1070 l 439 1070 l 451 1070 q 455 1074 455 1070 l 463 1070 l 475 1070 q 479 1074 479 1070 l 488 1070 l 504 1070 q 508 1074 508 1070 l 516 1070 l 524 1070 q 528 1074 528 1070 l 536 1070 l 549 1070 q 553 1074 553 1070 l 561 1070 l 573 1070 q 577 1074 577 1070 l 585 1070 l 602 1070 q 606 1074 606 1070 l 614 1070 l 622 1070 q 626 1074 626 1070 l 634 1070 l 646 1070 q 650 1074 650 1070 l 659 1070 l 671 1070 q 675 1074 675 1070 l 683 1070 l 699 1070 q 703 1074 703 1070 l 711 1070 l 720 1070 q 724 1074 724 1070 l 732 1070 l 744 1070 q 748 1074 748 1070 l 756 1070 l 768 1070 q 772 1074 772 1070 l 781 1070 l 797 1070 q 801 1074 801 1070 l 809 1070 l 817 1070 q 821 1074 821 1070 l 829 1070 l 842 1070 q 846 1074 846 1070 l 854 1070 l 866 1070 q 870 1074 870 1070 l 878 1070 l 895 1070 q 899 1074 899 1070 l 907 1070 l 915 1070 q 919 1074 919 1070 l 927 1070 l 939 1070 q 943 1074 943 1070 l 951 1070 l 964 1070 q 968 1074 968 1070 l 976 1070 l 992 1070 q 996 1074 996 1070 l 1004 1070 l 1013 1070 q 1017 1074 1017 1070 l 1025 1070 l 1038 1070 q 1042 1074 1042 1070 l 1050 1070 l 1062 1070 q 1066 1074 1066 1070 l 1074 1070 l 1090 1070 q 1095 1074 1095 1070 l 1103 1070 l 1111 1070 q 1115 1074 1115 1070 l 1123 1070 l 1135 1070 q 1139 1074 1139 1070 l 1147 1070 l 1160 1070 q 1164 1074 1164 1070 l 1172 1070 l 1188 1070 q 1192 1074 1192 1070 l 1200 1070 l 1208 1070 q 1213 1074 1213 1070 l 1221 1070 l 1245 1070 q 1339 1005 1339 1070 l 1339 -180 q 1261 -258 1339 -241 l 76 -258 q 11 -176 21 -258 l 11 -144 q 7 -140 11 -140 l 11 -132 l 11 -66 q 7 -62 11 -62 l 11 -54 l 11 -46 q 7 -42 11 -42 l 11 -34 l 11 31 q 7 35 11 35 l 11 43 l 11 52 q 7 56 11 56 l 11 64 l 11 130 q 7 134 11 134 l 11 142 l 11 150 q 7 154 11 154 l 11 162 l 11 227 q 7 231 11 231 l 11 239 l 11 248 q 7 252 11 252 l 11 260 l 11 325 q 7 329 11 329 l 11 337 l 11 345 q 7 349 11 349 l 11 357 l 11 422 q 7 427 11 427 l 11 435 l 11 443 q 7 447 11 447 l 11 455 l 11 520 q 7 524 11 524 l 11 532 l 11 541 q 7 545 11 545 l 11 553 l 11 618 q 7 622 11 622 l 11 630 l 11 638 q 7 642 11 642 l 11 650 l 11 715 q 7 720 11 720 l 11 728 l 11 736 q 7 740 11 740 l 11 749 l 11 814 q 7 818 11 818 l 11 826 l 11 834 q 7 838 11 838 l 11 846 l 11 911 q 7 916 11 916 l 11 924 l 11 932 q 7 936 11 936 l 11 944 l 11 1021 q 60 1070 11 1070 l 113 1070 q 117 1074 117 1070 m 19 993 l 19 -168 q 72 -245 19 -232 l 1270 -245 q 1326 -189 1303 -245 l 1326 1009 q 1249 1062 1313 1062 l 88 1062 q 23 1025 23 1062 q 19 993 19 1021 m 92 1054 l 1249 1054 q 1318 1005 1310 1054 l 1318 -184 q 1265 -237 1318 -218 l 76 -237 q 27 -168 27 -229 l 27 989 q 56 1050 27 1050 q 92 1054 71 1054 m 60 1021 l 60 -201 l 1282 -201 l 1282 1021 l 60 1021 m 768 1013 q 781 1009 777 1009 l 781 928 q 772 920 781 920 l 748 920 q 650 814 677 920 l 650 785 l 724 785 q 732 777 732 784 l 732 691 l 650 691 l 650 463 l 561 463 l 561 830 q 667 989 561 921 q 768 1013 713 1013 m 88 170 l 137 170 l 137 158 l 117 158 l 117 109 l 109 109 l 109 158 l 88 158 l 88 170 m 145 170 l 161 170 q 194 158 192 170 l 194 146 q 182 138 194 138 l 198 109 l 190 109 l 165 134 l 157 134 l 157 109 l 145 109 l 145 170 m 206 170 l 210 170 q 218 162 218 169 l 218 117 l 243 117 l 243 162 q 251 170 244 170 l 255 170 l 255 121 q 231 105 255 113 q 206 121 206 113 l 206 170 m 267 170 l 312 170 l 312 158 l 279 158 l 279 146 l 304 146 q 312 138 312 144 l 304 134 l 279 134 l 279 117 l 312 117 l 312 109 l 267 109 l 267 170 m 324 170 l 366 170 l 366 158 l 336 158 l 336 142 l 361 142 l 361 134 l 336 134 l 336 109 l 324 109 l 324 170 m 406 170 q 435 138 429 170 q 402 105 427 105 q 374 138 384 105 q 406 170 378 170 m 443 170 l 447 170 q 479 134 452 170 q 488 170 479 170 l 492 170 l 492 109 l 484 109 q 459 146 475 109 l 455 146 l 455 109 l 443 109 l 443 170 m 500 170 l 549 170 l 549 158 l 528 158 l 528 109 l 520 109 l 520 158 l 500 158 l 500 170 m 581 170 q 602 150 602 170 l 597 150 l 581 162 l 577 162 q 569 154 569 161 l 569 146 q 602 130 602 142 l 602 117 q 577 105 602 109 q 553 130 565 105 l 565 130 q 573 117 565 117 l 585 117 q 593 125 593 117 q 557 146 588 130 l 557 158 q 581 170 561 170 m 638 170 l 650 170 q 683 146 683 170 q 675 138 675 144 l 683 138 l 683 117 q 675 109 683 109 l 638 109 l 638 170 m 695 170 l 699 170 q 707 162 707 169 l 707 117 l 728 117 q 736 109 736 116 l 695 109 l 695 170 m 772 170 q 801 138 795 170 q 768 105 793 105 q 740 138 750 105 q 772 170 744 170 m 833 170 q 854 150 854 170 l 850 150 l 833 162 l 829 162 q 821 154 821 161 l 821 146 q 854 130 854 142 l 854 117 q 829 105 854 109 q 805 130 817 105 l 817 130 q 825 117 817 117 l 838 117 q 846 125 846 117 q 809 146 841 130 l 809 158 q 833 170 813 170 m 866 170 l 878 170 q 911 158 909 170 l 911 142 q 878 125 911 135 l 878 109 l 866 109 l 866 170 m 951 170 q 980 138 974 170 q 947 105 972 105 q 919 138 929 105 q 951 170 923 170 m 984 170 l 1034 170 l 1034 158 l 1013 158 l 1013 109 l 1004 109 l 1004 158 l 984 158 l 984 170 m 1095 170 l 1099 170 q 1115 154 1105 170 l 1115 150 l 1103 150 q 1090 162 1103 162 q 1074 138 1074 158 l 1074 130 q 1086 117 1074 123 l 1103 117 q 1111 130 1103 130 l 1115 130 l 1115 121 q 1095 105 1113 113 q 1062 142 1067 105 q 1095 170 1062 166 m 1156 170 q 1184 138 1178 170 q 1152 105 1176 105 q 1123 138 1133 105 q 1156 170 1127 170 m 1192 170 l 1200 170 q 1221 125 1209 170 l 1225 125 q 1241 170 1231 170 l 1249 170 l 1249 109 l 1241 109 l 1241 146 l 1237 146 l 1229 109 l 1213 109 l 1208 138 l 1204 138 l 1204 109 l 1192 109 l 1192 170 m 386 146 l 386 130 q 398 117 386 123 l 410 117 q 422 130 416 117 l 422 146 q 406 162 422 152 l 402 162 q 386 146 395 162 m 752 146 l 752 130 q 764 117 752 123 l 777 117 q 789 130 783 117 l 789 146 q 772 162 789 152 l 768 162 q 752 146 762 162 m 931 146 l 931 130 q 943 117 931 123 l 956 117 q 968 130 962 117 l 968 146 q 951 162 968 152 l 947 162 q 931 146 941 162 m 1135 146 l 1135 130 q 1147 117 1135 123 l 1160 117 q 1172 130 1165 117 l 1172 146 q 1156 162 1172 152 l 1152 162 q 1135 146 1145 162 m 157 158 l 157 142 l 174 142 q 182 150 182 142 l 182 158 l 157 158 m 650 158 l 650 146 l 671 146 l 671 158 l 650 158 m 878 158 l 878 142 l 895 142 q 903 150 903 142 q 895 158 903 158 l 878 158 m 650 134 l 650 117 l 667 117 q 675 125 675 117 q 667 134 675 134 l 650 134 m 614 117 l 618 117 q 626 109 626 116 l 614 109 l 614 117 m 1042 117 l 1046 117 q 1054 109 1054 116 l 1042 109 l 1042 117 z "},"`":{"ha":1219,"x_min":-3,"x_max":1173,"o":"m 94 922 l 101 919 l 108 919 q 112 922 112 919 l 119 919 l 130 919 q 134 922 134 919 l 140 919 l 151 919 q 155 922 155 919 l 162 919 l 176 919 q 180 922 180 919 l 187 919 l 195 919 q 198 922 198 919 l 205 919 l 216 919 q 220 922 220 919 l 227 919 l 237 919 q 241 922 241 919 l 248 919 l 263 919 q 267 922 267 919 l 274 919 l 281 919 q 284 922 284 919 l 292 919 l 302 919 q 306 922 306 919 l 313 919 l 324 919 q 328 922 328 919 l 335 919 l 349 919 q 353 922 353 919 l 360 919 l 367 919 q 371 922 371 919 l 378 919 l 389 919 q 393 922 393 919 l 399 919 l 410 919 q 414 922 414 919 l 421 919 l 435 919 q 439 922 439 919 l 446 919 l 454 919 q 457 922 457 919 l 465 919 l 475 919 q 479 922 479 919 l 486 919 l 497 919 q 500 922 500 919 l 507 919 l 522 919 q 526 922 526 919 l 533 919 l 540 919 q 543 922 543 919 l 551 919 l 562 919 q 565 922 565 919 l 572 919 l 583 919 q 587 922 587 919 l 594 919 l 608 919 q 612 922 612 919 l 619 919 l 627 919 q 630 922 630 919 l 637 919 l 648 919 q 652 922 652 919 l 659 919 l 669 919 q 673 922 673 919 l 680 919 l 694 919 q 699 922 699 919 l 705 919 l 713 919 q 716 922 716 919 l 724 919 l 734 919 q 738 922 738 919 l 745 919 l 756 919 q 760 922 760 919 l 766 919 l 781 919 q 785 922 785 919 l 792 919 l 799 919 q 803 922 803 919 l 810 919 l 821 919 q 824 922 824 919 l 831 919 l 842 919 q 846 922 846 919 l 853 919 l 867 919 q 871 922 871 919 l 878 919 l 886 919 q 889 922 889 919 l 896 919 l 907 919 q 911 922 911 919 l 918 919 l 928 919 q 932 922 932 919 l 939 919 l 954 919 q 958 922 958 919 l 964 919 l 972 919 q 975 922 975 919 l 983 919 l 994 919 q 997 922 997 919 l 1004 919 l 1015 919 q 1019 922 1019 919 l 1025 919 l 1040 919 q 1044 922 1044 919 l 1051 919 l 1058 919 q 1062 922 1062 919 l 1069 919 l 1090 919 q 1173 861 1173 919 l 1173 -186 q 1105 -254 1173 -239 l 58 -254 q 0 -182 9 -254 l 0 -153 q -3 -150 0 -150 l 0 -143 l 0 -85 q -3 -81 0 -81 l 0 -75 l 0 -67 q -3 -64 0 -64 l 0 -56 l 0 1 q -3 5 0 5 l 0 12 l 0 19 q -3 23 0 23 l 0 30 l 0 87 q -3 91 0 91 l 0 98 l 0 106 q -3 109 0 109 l 0 116 l 0 174 q -3 178 0 178 l 0 184 l 0 192 q -3 195 0 195 l 0 203 l 0 260 q -3 264 0 264 l 0 271 l 0 278 q -3 282 0 282 l 0 289 l 0 347 q -3 350 0 350 l 0 357 l 0 365 q -3 368 0 368 l 0 376 l 0 433 q -3 437 0 437 l 0 444 l 0 451 q -3 454 0 454 l 0 462 l 0 519 q -3 523 0 523 l 0 530 l 0 537 q -3 541 0 541 l 0 548 l 0 606 q -3 609 0 609 l 0 616 l 0 624 q -3 627 0 627 l 0 635 l 0 692 q -3 696 0 696 l 0 703 l 0 710 q -3 713 0 713 l 0 721 l 0 779 q -3 782 0 782 l 0 789 l 0 796 q -3 800 0 800 l 0 807 l 0 876 q 43 919 0 919 l 90 919 q 94 922 94 919 m 7 850 l 7 -175 q 54 -243 7 -232 l 1112 -243 q 1162 -193 1142 -243 l 1162 865 q 1094 911 1151 911 l 68 911 q 11 879 11 911 q 7 850 7 876 m 72 904 l 1094 904 q 1155 861 1147 904 l 1155 -189 q 1108 -236 1155 -220 l 58 -236 q 15 -175 15 -229 l 15 847 q 40 901 15 901 q 72 904 53 904 m 43 876 l 43 -204 l 1123 -204 l 1123 876 l 43 876 m 766 818 l 766 793 q 738 774 758 774 q 699 789 705 789 q 680 774 682 782 l 680 771 q 741 635 694 771 l 745 635 l 745 771 l 788 771 l 788 526 l 745 526 q 680 682 737 528 l 677 682 l 677 526 l 633 526 l 633 764 q 641 771 635 771 l 673 771 l 673 793 q 699 814 682 808 q 741 800 700 814 l 745 800 l 766 818 m 123 771 l 148 771 q 274 645 274 754 q 195 534 274 572 q 115 523 168 523 l 112 530 l 112 760 q 123 771 112 766 m 284 771 l 317 771 q 324 764 324 770 l 324 530 q 317 523 324 523 l 284 523 q 277 530 277 523 l 277 764 q 284 771 279 771 m 421 771 l 471 771 q 479 764 479 770 l 479 732 q 471 724 479 724 l 399 724 q 374 682 374 708 l 410 682 q 490 602 490 667 q 399 523 490 535 l 342 523 q 335 530 335 523 l 335 570 l 421 570 q 446 606 437 570 q 407 638 434 638 l 338 638 q 331 645 331 638 l 331 671 q 389 768 331 744 q 421 771 408 771 m 572 771 l 623 771 l 623 724 l 605 728 l 590 728 q 543 692 543 724 l 543 674 l 572 674 q 580 667 580 673 l 580 638 q 572 631 580 631 l 543 631 l 543 602 q 597 566 543 566 l 597 530 q 590 523 597 523 l 576 523 q 497 602 497 523 l 497 696 q 572 771 497 771 m 928 771 q 1047 677 1014 771 q 1051 649 1051 664 l 1051 645 q 954 526 1051 560 q 928 523 943 526 q 806 620 844 523 q 803 645 806 631 q 928 771 821 771 m 849 652 l 849 642 q 922 570 863 570 l 936 570 q 1008 649 991 570 q 925 728 1008 714 q 849 652 849 711 m 155 724 l 155 570 q 227 635 227 586 l 227 663 q 159 724 208 724 l 155 724 m 393 440 l 404 440 q 410 401 410 440 l 414 401 q 446 440 414 412 l 468 440 l 468 433 q 421 379 427 379 q 468 303 468 309 l 439 303 q 410 347 439 317 l 410 303 l 385 303 l 385 433 q 393 440 387 440 m 529 401 l 533 401 q 562 393 558 393 l 580 393 l 580 303 l 558 303 l 558 311 q 536 303 546 303 l 511 303 q 479 357 479 317 q 529 401 490 401 m 597 401 q 608 390 603 401 l 597 382 q 587 393 592 382 l 597 401 m 669 401 l 709 401 l 709 376 l 655 376 q 641 357 648 374 l 716 357 l 716 350 q 677 303 710 303 l 616 303 l 616 325 l 677 325 q 688 336 682 325 l 623 336 q 616 347 616 336 q 669 401 621 401 m 766 401 q 813 354 813 397 l 813 343 l 745 343 l 745 339 q 781 321 753 321 l 810 321 l 810 303 l 763 303 q 724 350 724 310 l 724 357 q 766 401 732 401 m 871 401 l 875 401 l 875 379 q 842 350 842 379 l 842 303 l 817 303 l 817 354 q 871 401 817 393 m 500 354 q 529 325 503 325 l 536 325 q 554 343 541 325 l 554 361 q 526 379 545 379 q 500 354 514 379 m 749 368 l 749 365 l 792 365 q 777 379 792 370 l 770 379 q 749 368 749 377 m 587 379 l 608 379 l 608 303 l 587 303 l 587 379 m 450 210 l 551 210 q 565 203 559 203 l 565 167 l 583 170 l 597 170 q 641 120 635 170 l 641 73 l 619 73 l 619 102 q 590 149 619 149 l 583 149 q 565 120 565 140 l 565 73 l 450 73 l 450 102 q 522 184 522 180 l 450 184 l 450 210 m 479 98 l 543 98 l 543 167 l 540 167 q 479 98 513 139 m 688 170 l 702 170 q 730 163 728 163 l 749 163 l 749 73 l 730 73 q 724 80 724 73 q 694 73 710 73 l 691 73 q 648 116 648 82 l 648 131 q 688 170 648 160 m 799 170 l 813 170 l 813 149 q 781 123 781 149 l 781 80 q 774 73 781 73 l 756 73 l 756 131 q 799 170 756 160 m 669 120 q 699 95 669 99 q 724 127 724 103 q 694 149 716 149 l 688 149 q 669 120 669 140 m 404 -20 l 425 -20 l 425 -56 q 454 -20 454 -33 l 486 -20 l 439 -81 q 486 -157 486 -150 l 465 -157 q 429 -106 451 -149 l 425 -106 l 425 -157 l 404 -157 l 404 -20 m 497 -24 l 511 -24 q 518 -64 518 -24 q 547 -56 532 -56 q 594 -111 587 -56 l 594 -150 q 587 -157 594 -157 l 572 -157 l 572 -117 q 554 -81 572 -90 l 533 -81 q 518 -106 518 -87 l 518 -150 q 511 -157 518 -157 l 497 -157 l 497 -24 m 652 -56 q 677 -67 677 -61 l 684 -64 l 694 -64 q 702 -71 702 -64 l 702 -150 q 694 -157 702 -157 l 684 -157 l 673 -150 q 648 -157 659 -157 q 601 -114 601 -148 l 601 -100 q 652 -56 601 -62 m 763 -56 q 806 -100 806 -68 l 806 -157 l 792 -157 q 785 -150 785 -157 l 785 -100 q 760 -81 777 -81 l 756 -81 q 730 -111 730 -81 l 730 -150 q 724 -157 730 -157 l 709 -157 l 709 -100 q 760 -56 709 -62 l 763 -56 m 623 -106 q 641 -132 623 -125 l 659 -132 q 677 -103 677 -123 q 659 -81 672 -88 l 637 -81 q 623 -106 623 -87 z "},"a":{"ha":1503,"x_min":0,"x_max":1464,"o":"m 444 727 l 535 727 q 939 566 686 727 q 1020 555 978 555 l 1030 555 l 1030 667 q 1050 686 1033 686 l 1060 686 q 1202 606 1114 606 q 1363 586 1206 606 q 1464 636 1449 636 l 1464 595 q 1404 303 1413 461 q 1232 222 1323 222 l 1141 111 q 1070 41 1116 111 l 1030 31 q 1000 41 1010 41 l 1000 31 q 899 50 899 41 l 878 41 l 859 41 q 686 31 764 41 q 606 41 631 41 q 374 10 508 20 q 363 20 374 20 q 343 0 363 0 l 273 0 l 212 10 q 182 0 193 0 q 172 10 172 0 l 121 0 l 101 0 q 0 172 0 88 q 262 656 0 526 q 444 727 363 727 z "},"b":{"ha":1097,"x_min":0,"x_max":1098,"o":"m 399 968 q 419 949 419 965 l 419 839 q 379 679 419 812 q 529 559 425 559 q 669 429 627 429 q 719 279 699 429 l 759 279 q 918 300 905 300 l 949 300 q 1098 220 1048 300 l 1098 180 l 918 250 l 909 250 q 629 140 820 250 q 469 70 570 140 q 439 80 450 80 l 439 140 l 459 140 l 459 150 l 429 150 q 399 0 429 119 l 290 0 l 290 10 q 319 110 290 21 l 319 140 l 300 170 l 340 210 l 300 210 q 220 30 276 30 l 140 30 q 130 50 140 50 q 190 130 135 85 q 199 160 190 160 q 110 489 199 296 l 130 499 l 120 519 l 130 539 l 120 539 l 130 559 l 130 619 l 110 619 l 90 609 l 80 629 q 90 639 90 629 l 60 639 l 60 659 l 100 659 q 0 928 37 768 l 10 928 q 140 869 47 928 q 370 968 322 869 l 399 968 z "},"c":{"ha":1110,"x_min":0,"x_max":1097,"o":"m 12 968 l 18 968 q 79 779 54 957 q 190 533 153 640 q 361 625 210 533 q 490 662 446 662 q 656 644 591 644 q 742 699 673 644 l 815 717 l 815 711 l 840 723 l 876 717 q 932 730 916 730 q 968 705 968 730 q 926 650 968 696 l 926 589 q 870 466 908 466 l 870 454 q 1085 325 994 325 l 1097 307 l 1097 300 q 1079 282 1097 292 l 1073 282 q 833 361 979 282 l 833 368 l 827 368 l 827 325 q 932 141 843 229 q 962 86 938 112 q 901 12 962 22 l 889 12 q 858 37 889 21 l 864 92 q 748 264 864 100 q 607 405 695 405 l 583 405 q 392 282 392 378 q 233 141 383 231 l 233 129 q 349 6 349 39 l 319 0 q 147 147 212 50 q 141 159 147 159 q 172 202 141 169 q 92 294 103 274 q 147 355 92 305 l 135 386 q 141 392 141 386 q 129 405 129 392 q 135 423 129 411 q 55 674 135 541 q 0 932 0 868 l 0 956 q 12 968 2 968 z "},"d":{"ha":1517,"x_min":0,"x_max":1495,"o":"m 1172 968 q 1387 909 1387 945 l 1387 897 l 1339 849 q 1495 789 1356 849 l 1495 765 q 1291 610 1369 765 q 1232 550 1238 550 q 1136 586 1191 550 l 1112 586 q 1076 478 1088 586 q 1196 382 1076 431 q 1387 263 1387 284 l 1399 263 q 1363 215 1381 215 l 1351 215 q 920 359 920 299 l 897 359 q 909 179 909 239 l 909 155 q 1028 83 910 129 l 1040 60 q 956 0 1040 19 q 741 275 813 0 l 669 395 l 574 395 l 478 275 q 729 155 729 221 q 633 119 678 119 q 347 251 347 170 q 179 191 303 208 q 287 83 287 91 l 287 48 q 215 12 275 12 q 0 215 116 12 l 0 263 q 72 418 0 292 q 12 538 27 538 q 514 885 12 811 q 801 813 616 885 q 1100 945 891 837 q 1172 968 1149 968 z "},"e":{"ha":1193,"x_min":0,"x_max":1153,"o":"m 857 1088 q 917 1039 901 1039 l 928 1039 q 952 1066 932 1039 l 955 1066 q 1023 887 970 1066 q 1025 852 1025 864 q 971 792 1025 809 q 939 760 939 783 l 939 738 q 979 681 939 681 q 1120 665 1120 675 q 1153 597 1153 637 q 1142 583 1153 583 q 1053 597 1105 597 l 1031 597 q 939 578 989 597 l 939 575 q 1031 467 1028 484 q 979 418 1015 431 q 952 477 965 418 q 892 510 924 507 l 884 510 q 711 347 859 510 q 700 90 708 229 q 760 65 700 71 q 773 27 773 54 l 773 16 q 754 8 773 11 q 621 65 695 8 q 597 106 597 85 l 621 174 q 570 198 618 190 q 415 98 481 198 q 410 76 410 87 l 410 71 q 431 38 410 55 q 437 22 437 29 q 415 0 433 0 q 342 60 342 9 q 339 79 339 71 q 377 198 339 182 q 442 258 442 224 q 401 345 442 316 q 317 353 358 353 l 239 353 q 43 277 121 353 q 16 266 24 266 l 8 266 q 0 282 0 269 q 163 404 0 343 q 345 412 201 412 l 363 412 q 442 437 425 412 q 491 483 442 444 q 670 640 597 563 q 762 811 762 782 q 795 987 762 960 q 852 1088 842 1042 l 857 1088 z "},"f":{"ha":783,"x_min":0,"x_max":784,"o":"m 746 852 q 770 798 770 852 q 784 712 784 720 q 754 668 784 703 q 750 642 750 650 q 764 564 750 633 l 764 555 q 716 459 764 501 q 662 311 662 405 l 662 297 q 720 172 662 222 l 726 159 q 702 128 726 134 q 622 195 669 128 q 602 271 602 227 q 559 293 591 293 q 484 186 532 293 l 484 184 l 486 184 q 549 159 549 184 l 549 142 l 551 138 l 547 136 l 273 136 q 239 155 254 155 l 233 155 q 78 96 201 155 q 54 64 54 77 l 54 62 q 90 10 54 43 l 90 4 l 84 0 l 78 0 q 6 44 43 0 q 0 66 0 60 l 0 68 q 62 146 0 128 q 216 267 186 197 q 335 532 261 468 q 467 606 395 587 q 578 634 578 623 q 586 656 586 644 l 586 660 q 555 774 586 680 l 553 806 q 566 830 553 823 q 636 800 573 830 l 656 798 q 722 842 690 798 q 746 852 734 852 z "},"g":{"ha":1131,"x_min":0,"x_max":1094,"o":"m 33 941 l 52 941 l 105 884 l 186 884 l 243 941 l 253 941 q 273 893 267 941 l 273 850 q 258 822 273 833 q 287 764 287 783 l 287 741 q 268 693 287 724 q 397 621 268 672 q 568 306 568 483 l 568 239 l 559 153 l 568 148 l 621 148 l 741 129 q 1080 138 1045 138 q 1094 134 1089 134 l 1094 91 q 960 38 1094 58 q 712 62 768 62 l 640 62 q 296 24 511 62 q 239 52 261 24 l 234 52 q 215 9 228 52 q 177 0 197 0 l 134 0 l 115 19 l 81 14 l 67 33 l 67 47 q 110 110 67 68 q 119 163 119 129 l 119 168 q 19 530 119 266 l 19 607 q 33 654 19 612 l 33 664 q 0 741 12 741 l 0 779 q 33 822 7 779 q 24 888 24 858 q 33 941 24 901 z "},"h":{"ha":1223,"x_min":0,"x_max":1188,"o":"m 884 962 l 890 962 q 900 905 890 941 l 905 905 q 926 910 917 905 q 998 880 948 910 q 1044 848 1031 880 q 982 735 1044 809 l 982 725 q 992 627 987 627 q 972 452 987 543 q 1044 360 990 360 q 1177 247 1177 309 q 1188 221 1188 247 l 1188 205 q 1177 195 1188 195 l 1167 195 q 1116 241 1135 195 q 992 283 1116 269 q 895 319 943 298 q 854 185 868 319 q 910 103 859 140 q 916 87 910 98 q 884 67 910 67 l 880 67 q 782 288 802 67 l 777 288 q 730 237 745 267 l 735 211 l 735 205 q 709 98 735 174 q 797 72 715 98 q 890 36 871 72 l 890 26 q 838 0 878 0 l 833 0 q 669 20 804 10 q 637 46 637 35 l 627 46 q 519 20 534 20 l 494 26 q 406 16 439 16 l 396 20 q 298 5 338 5 l 293 5 q 20 139 86 5 q 0 237 0 195 q 46 334 21 334 l 56 334 q 72 319 64 334 q 52 247 52 263 l 52 221 q 191 72 52 125 q 237 67 209 72 q 401 92 310 72 q 396 170 396 144 l 396 216 q 509 484 396 336 q 751 627 624 591 q 792 673 783 650 l 787 699 l 787 715 q 792 818 787 760 q 777 916 777 880 l 777 936 q 787 946 778 946 l 792 946 q 854 895 850 895 l 869 895 l 884 962 z "},"i":{"ha":879,"x_min":0,"x_max":844,"o":"m 732 951 q 844 876 844 922 q 819 859 840 859 q 760 884 801 859 q 736 892 747 892 l 732 892 q 684 772 692 892 q 671 724 681 772 q 692 715 692 724 l 692 711 q 660 684 660 711 l 696 684 l 696 671 l 656 671 q 640 652 650 671 l 688 644 l 688 631 q 631 640 678 631 q 476 432 609 601 q 492 408 485 408 q 588 492 539 492 q 595 496 588 496 q 660 340 648 496 q 544 84 660 273 q 584 72 544 75 l 640 76 q 707 44 682 76 q 635 4 703 4 q 439 16 601 4 q 352 0 400 0 q 272 16 290 5 q 76 0 272 7 q 8 28 8 8 l 8 40 q 76 72 31 72 q 132 68 126 68 l 172 76 q 56 332 56 267 l 56 352 q 120 492 71 492 q 224 412 172 481 q 284 584 247 469 q 144 640 219 584 q 4 624 47 624 l 4 628 q 128 648 4 638 l 128 652 q 116 664 128 657 l 108 664 q 104 660 104 664 q 100 664 100 660 l 60 660 l 8 660 q 0 667 0 660 l 12 675 l 108 675 l 108 680 q 100 692 104 692 q 0 700 81 692 l 0 704 q 8 711 1 711 l 100 704 l 100 720 q 108 751 100 737 q 100 808 100 782 l 100 823 q 136 928 100 928 q 244 848 169 928 l 244 844 q 323 852 301 852 l 356 852 q 444 840 408 852 q 559 935 482 903 q 600 827 589 935 l 595 827 q 600 823 595 823 q 580 743 591 758 q 584 715 584 728 l 616 715 q 644 880 631 772 q 732 951 681 951 m 580 692 l 580 684 l 595 684 q 608 704 605 684 l 604 704 q 580 692 580 701 m 568 671 q 564 660 568 667 l 584 660 q 591 667 591 660 l 591 671 l 568 671 m 416 584 q 448 492 448 500 q 576 644 541 593 l 576 648 l 555 648 q 416 584 503 604 z "},"j":{"ha":618,"x_min":0,"x_max":605,"o":"m 76 958 q 227 876 130 914 q 302 731 281 803 l 296 731 q 378 643 321 643 q 505 524 483 589 q 605 214 552 456 l 605 208 q 587 139 600 153 q 593 88 593 104 q 416 0 551 0 l 246 0 q 69 44 103 44 l 69 63 q 139 82 118 82 l 151 82 l 164 76 q 214 113 178 113 q 220 139 214 139 q 126 429 170 374 q 94 498 102 429 q 57 561 76 498 q 88 687 72 687 l 82 700 l 101 731 q 0 794 0 731 l 0 813 q 44 882 19 813 q 63 901 53 882 l 57 945 l 63 945 l 76 939 l 76 958 m 290 139 l 283 126 l 283 107 q 309 101 298 107 l 315 113 q 290 139 315 123 z "},"k":{"ha":1282,"x_min":0,"x_max":1265,"o":"m 216 949 l 227 949 q 237 938 237 947 q 68 722 68 801 l 68 711 q 227 574 68 616 l 237 574 q 559 806 425 783 q 701 838 642 838 l 722 838 q 954 770 859 838 q 985 917 985 770 l 991 917 q 1059 844 1015 909 l 1128 844 q 1165 833 1165 842 q 1255 886 1236 886 l 1265 886 l 1228 664 q 1144 574 1200 628 q 1006 342 1128 489 q 938 111 977 302 q 991 32 938 60 l 991 5 l 964 0 l 917 0 q 880 221 880 0 q 869 279 873 221 l 859 279 l 859 211 q 796 21 859 21 q 764 63 764 42 l 785 184 q 706 374 785 239 l 696 374 q 548 221 565 221 q 522 179 522 193 q 606 100 570 100 q 648 74 648 100 q 637 58 643 58 q 574 53 629 58 q 406 205 534 62 q 380 158 390 205 q 458 68 414 68 l 469 53 l 469 37 q 458 26 469 26 l 422 26 q 290 227 336 26 q 306 290 306 274 l 306 316 q 253 496 306 393 q 11 648 93 496 q 0 728 0 698 q 132 917 0 825 q 216 949 180 949 m 1017 743 l 1012 732 q 1065 690 1034 690 l 1070 690 q 1080 701 1080 690 l 1080 717 q 1017 743 1076 717 m 1144 701 l 1144 696 q 1154 685 1145 685 l 1165 685 q 1213 701 1175 685 l 1213 717 l 1175 717 q 1144 701 1144 713 z "},"l":{"ha":1163,"x_min":0,"x_max":1135,"o":"m 553 965 q 823 790 701 965 l 823 785 l 828 785 q 951 833 853 817 l 965 833 q 1022 823 1002 823 q 1046 842 1022 829 l 1069 842 l 1069 833 q 1055 795 1069 819 q 1064 781 1060 781 q 1121 790 1084 781 q 1135 785 1131 785 q 1078 719 1135 762 q 1088 639 1088 644 l 1055 582 q 1036 525 1048 525 l 1027 525 l 1017 530 q 1003 515 1017 523 q 932 549 975 515 l 937 515 l 937 496 q 884 336 937 461 l 884 307 q 956 95 884 255 q 984 85 964 95 l 994 90 q 1027 57 1027 90 l 1027 52 q 989 28 1015 28 l 984 28 q 894 62 951 28 q 866 52 878 52 q 752 142 752 77 q 676 412 709 218 q 620 478 657 478 q 539 487 582 487 l 534 487 q 469 464 469 484 l 473 454 q 364 232 468 411 q 340 142 341 190 q 397 47 340 47 q 412 33 404 47 q 378 0 412 0 l 340 0 q 279 47 309 0 q 194 113 194 47 q 189 151 189 118 l 189 165 q 194 213 189 188 q 175 312 175 294 q 203 492 203 451 q 184 587 189 551 l 189 610 l 189 629 q 213 776 189 682 q 81 553 81 724 q 123 279 81 493 l 123 246 l 118 246 q 52 378 75 246 q 0 644 0 524 q 118 880 0 820 q 208 903 166 903 l 246 903 q 302 889 258 903 q 407 941 302 906 q 553 965 470 965 m 795 270 l 795 265 q 852 113 833 113 l 861 113 l 861 118 q 800 270 800 231 l 795 270 m 256 170 l 256 132 l 260 132 l 260 170 l 256 170 z "},"m":{"ha":1309,"x_min":0,"x_max":1291,"o":"m 15 955 q 183 806 110 923 q 341 643 270 643 q 772 584 557 584 q 1049 648 876 584 q 1177 677 1177 648 l 1212 713 q 1232 643 1219 713 q 1291 554 1291 604 l 1291 544 q 1267 490 1284 490 l 1177 490 q 1039 401 1111 490 l 1029 366 q 1133 84 1029 286 q 1158 35 1158 52 q 1128 24 1141 24 l 1123 24 q 1019 193 1101 38 q 925 277 965 261 q 905 183 905 252 q 935 39 905 96 q 930 24 930 30 l 901 24 q 856 163 880 24 q 826 282 838 190 q 767 307 788 307 q 524 277 703 288 q 425 149 481 277 l 425 134 q 515 20 425 102 l 515 5 l 505 0 l 490 0 q 351 144 412 0 q 347 168 351 160 q 351 237 351 210 l 351 272 q 336 287 351 279 q 153 129 153 183 l 153 39 q 138 24 153 33 l 119 24 q 74 94 74 24 q 168 312 74 182 q 242 564 242 517 q 54 901 189 781 q 0 945 0 937 q 15 955 0 955 z "},"n":{"ha":965,"x_min":0,"x_max":955,"o":"m 296 968 q 368 915 304 968 q 489 829 413 915 q 570 713 500 783 l 740 663 q 838 538 827 585 q 928 404 928 420 q 937 332 937 384 l 937 139 q 955 72 955 84 l 955 67 q 829 9 955 16 q 520 0 646 0 l 283 0 q 9 108 103 0 l 0 139 l 0 144 q 31 179 3 179 q 98 112 41 179 q 309 54 140 82 q 363 50 317 54 q 453 54 424 54 q 489 108 462 88 l 511 108 l 511 170 q 479 412 500 412 q 309 583 360 489 q 296 628 300 628 q 305 677 300 634 q 278 695 282 695 q 242 686 270 695 q 224 690 234 690 l 220 690 l 202 628 l 197 628 l 197 632 l 211 686 l 202 682 l 202 686 q 211 695 203 695 q 215 690 211 690 l 202 709 l 193 704 l 189 704 l 197 718 l 197 722 l 189 735 l 189 753 q 220 843 201 768 q 264 865 233 857 q 296 968 283 914 m 197 699 l 197 695 q 184 682 197 688 l 184 686 q 197 699 184 692 m 170 690 l 175 690 q 161 677 175 684 l 161 682 q 170 690 163 690 m 184 682 l 184 677 q 175 668 184 668 l 175 673 q 184 682 176 682 m 197 682 l 202 682 l 202 673 l 197 673 l 197 682 m 197 673 l 197 668 q 184 650 191 650 l 184 654 q 197 673 191 673 m 179 650 l 184 650 l 184 641 l 179 641 l 179 650 m 587 175 q 583 139 583 150 q 596 72 583 72 q 618 90 596 90 l 618 94 q 592 175 592 137 l 587 175 z "},"o":{"ha":459,"x_min":76,"x_max":447,"o":"m 262 962 q 327 945 275 962 q 387 956 358 945 q 393 945 387 945 q 355 825 355 882 q 349 804 349 825 q 436 509 396 509 l 447 471 q 332 263 447 312 q 305 258 305 263 l 294 263 l 283 263 q 273 18 273 167 l 273 -26 q 316 -229 273 -191 q 327 -239 327 -230 l 327 -250 q 316 -261 327 -261 q 239 -146 239 -248 q 234 -26 234 -83 q 239 263 239 256 q 223 258 234 263 q 81 399 130 258 q 76 481 76 454 q 174 809 142 554 q 142 918 163 904 q 136 940 136 928 l 136 956 q 201 945 174 945 q 262 962 243 962 z "},"p":{"ha":664,"x_min":7,"x_max":662,"o":"m 134 939 l 138 939 q 392 661 280 661 q 519 593 477 643 q 595 359 595 494 l 595 243 q 555 -46 595 89 q 547 -114 547 -78 l 547 -121 q 630 -217 547 -217 l 638 -217 q 662 -209 645 -217 l 662 -217 q 602 -264 641 -264 q 507 -205 507 -236 q 495 -117 500 -164 l 527 149 q 491 224 520 224 q 265 260 265 231 q 356 292 347 292 l 356 296 q 233 371 245 371 l 233 367 q 225 323 225 351 l 225 260 l 229 240 l 210 236 l 197 236 q 130 240 176 236 l 130 243 q 182 303 130 256 l 182 371 q 110 557 182 466 q 86 656 100 578 q 15 724 75 673 q 7 760 7 750 q 102 863 7 775 q 134 939 134 926 z "},"q":{"ha":1259,"x_min":0,"x_max":1227,"o":"m 1188 958 l 1198 939 q 1158 838 1158 869 l 1158 829 q 1227 819 1198 819 l 1227 808 l 1168 789 l 1168 739 q 1088 589 1114 589 l 1078 589 l 1058 599 q 1028 589 1039 589 q 908 669 962 669 l 918 599 q 899 539 918 582 l 908 539 q 1128 579 1029 579 q 1178 539 1173 559 l 1178 519 q 1138 479 1178 509 l 1118 489 l 1048 489 q 808 319 808 393 q 799 199 799 249 q 859 70 799 70 q 888 40 866 70 q 829 0 888 14 q 719 130 747 0 q 679 379 679 330 l 649 379 l 619 359 q 649 250 649 304 q 539 120 649 164 l 539 100 l 619 100 q 689 70 652 100 q 659 30 674 30 l 549 30 q 529 0 549 0 l 419 0 q 260 10 316 0 q 100 0 203 0 l 80 0 q 0 50 7 0 q 160 110 0 97 l 150 230 l 150 239 q 419 768 150 589 q 958 948 621 891 l 968 948 l 1028 939 q 1188 958 1074 939 z "},"r":{"ha":840,"x_min":0,"x_max":817,"o":"m 795 961 q 812 935 795 935 q 804 860 812 919 q 817 856 812 856 l 817 852 q 790 838 790 847 l 790 825 q 817 834 808 834 q 808 804 808 822 l 817 804 q 782 782 817 795 l 782 777 l 795 760 q 755 699 773 744 q 743 677 745 699 q 707 646 723 669 l 707 642 l 720 642 q 620 576 650 576 q 581 371 608 533 q 564 315 564 339 q 607 218 564 260 q 576 39 583 39 l 550 35 q 519 57 519 35 q 546 79 519 66 q 555 197 555 149 q 476 323 518 197 l 476 336 l 467 336 l 467 306 q 502 201 467 245 q 476 61 485 61 q 441 52 460 52 l 428 52 q 415 74 420 52 q 446 96 415 95 q 450 161 450 140 l 450 192 q 367 376 367 347 l 358 376 q 267 279 296 279 q 222 4 256 4 q 179 0 200 0 l 170 0 l 166 22 l 166 26 q 197 43 166 35 q 205 210 205 155 q 201 262 205 217 l 183 262 q 136 13 183 151 l 74 13 q 70 26 74 18 q 105 61 70 53 q 113 214 113 118 l 113 231 l 100 380 q 113 463 100 408 q 66 559 104 527 q 52 581 61 559 l 57 581 q 35 594 57 594 l 35 598 q 52 603 45 598 l 48 611 q 70 768 48 684 l 74 768 q 113 716 113 734 l 136 716 q 153 720 145 716 q 170 716 161 716 l 192 716 q 227 768 192 730 q 249 664 245 736 q 258 620 258 664 l 336 743 q 419 786 386 786 q 581 616 533 786 l 589 616 q 603 664 603 616 q 594 694 603 677 l 607 703 q 594 747 603 736 q 616 782 616 747 l 616 825 l 625 821 q 650 865 650 843 l 664 856 q 686 913 686 884 l 690 913 l 694 891 q 725 943 725 913 q 743 939 734 943 q 795 965 787 965 l 795 961 m 22 594 l 31 594 l 31 589 l 22 589 l 22 594 m 9 589 l 18 589 l 18 585 l 9 585 l 9 589 m 0 585 l 9 585 l 9 581 l 0 581 l 0 585 m 43 576 l 52 576 l 52 572 l 43 572 l 43 576 m 22 568 l 31 568 l 31 564 l 22 564 l 22 568 m 9 564 l 18 564 l 18 559 l 9 559 l 9 564 m 52 559 l 61 559 l 61 555 l 52 555 l 52 559 m 35 550 l 43 550 l 43 546 l 35 546 l 35 550 m 26 546 l 35 546 l 35 541 l 26 541 l 26 546 m 18 541 l 26 541 l 26 537 l 18 537 l 18 541 m 9 537 l 18 537 l 18 533 l 9 533 l 9 537 z "},"s":{"ha":817,"x_min":0,"x_max":805,"o":"m 618 962 l 633 962 q 643 951 643 960 l 643 921 q 719 840 643 861 q 764 759 764 813 l 805 713 l 805 693 q 703 602 774 602 l 699 602 l 688 608 q 663 572 663 600 l 663 562 q 699 435 699 481 l 699 430 q 587 263 672 324 q 516 127 516 199 l 516 106 q 536 31 536 37 l 536 25 q 496 0 527 0 l 395 0 q 91 25 91 0 q 0 212 26 83 q 41 385 0 275 q 66 501 61 446 q 25 653 66 545 l 25 673 q 76 719 25 707 l 81 719 q 177 562 163 719 l 177 526 q 101 339 177 481 q 86 248 91 248 l 91 238 l 91 228 q 86 222 91 222 q 96 182 96 191 l 106 182 l 106 187 q 162 400 135 400 q 253 501 162 429 q 370 572 366 543 q 446 668 446 601 l 440 668 q 542 871 450 753 q 618 962 542 897 z "},"t":{"ha":1078,"x_min":0,"x_max":1047,"o":"m 271 955 l 271 949 l 265 937 l 271 937 l 296 955 l 296 949 q 271 893 271 898 q 320 777 320 840 q 357 733 332 777 l 339 733 l 345 721 q 290 690 338 721 q 252 703 269 703 l 240 703 q 234 677 240 677 q 351 616 234 642 q 505 160 505 435 q 499 111 499 136 q 850 43 499 43 q 1047 12 979 31 l 1047 0 l 857 0 q 277 6 607 0 q 142 0 224 0 l 136 12 l 136 18 q 191 56 136 56 q 166 148 166 113 l 160 148 q 117 0 148 80 l 37 0 l 37 6 q 92 62 37 37 l 98 104 q 6 579 98 170 q 0 616 6 616 l 6 629 l 6 671 q 0 677 6 677 q 160 911 66 830 q 271 955 252 955 m 339 905 l 388 905 l 388 899 l 339 899 l 339 905 m 326 899 l 339 899 l 339 893 l 326 893 l 326 899 m 308 881 l 314 881 l 314 869 l 308 869 l 308 881 m 320 869 l 333 869 l 333 863 l 320 863 l 320 869 m 339 869 l 363 869 l 363 863 l 339 863 l 339 869 m 394 758 l 407 758 l 407 751 l 394 751 l 394 758 m 357 733 l 370 733 l 370 727 l 357 727 l 357 733 m 357 709 q 376 690 366 709 l 376 684 q 357 703 367 684 l 357 709 m 388 709 l 400 709 l 400 696 q 388 709 388 696 m 333 696 l 339 696 l 339 684 l 333 684 l 333 696 m 308 690 l 314 690 l 314 665 l 308 665 l 308 690 m 339 684 l 345 684 l 345 665 l 339 665 l 339 684 m 382 677 l 388 677 l 388 665 l 382 665 l 382 677 m 388 665 l 394 665 l 394 653 l 388 653 l 388 665 m 345 659 l 351 659 l 351 647 l 345 647 l 345 659 m 394 647 l 400 647 l 400 622 l 394 622 l 394 647 z "},"u":{"ha":1887,"x_min":0,"x_max":1877,"o":"m 0 943 l 7 943 l 184 889 l 199 889 q 299 943 241 889 q 337 889 337 932 q 330 843 330 848 q 444 812 399 812 q 1065 820 578 812 q 1440 690 1282 798 q 1640 406 1573 557 q 1854 191 1750 191 q 1877 146 1877 162 l 1862 138 l 1847 138 q 1655 260 1762 149 q 1371 636 1481 636 q 1364 551 1364 568 q 1471 283 1364 391 q 1510 84 1510 121 q 1448 23 1501 23 q 1410 54 1413 38 q 1448 92 1410 64 l 1448 130 q 1272 276 1448 230 q 1234 314 1234 299 l 1226 314 q 1211 299 1211 312 l 1211 268 q 1226 184 1211 214 q 1042 0 1226 105 l 1019 0 q 950 31 968 0 l 973 69 l 1011 61 q 1111 146 1059 61 q 981 337 1078 214 q 682 383 938 368 q 636 130 644 366 q 544 54 636 64 q 513 77 513 65 l 513 84 q 574 138 574 123 q 551 322 567 229 q 444 184 444 237 q 314 31 314 65 l 276 31 q 191 54 191 31 l 191 69 q 268 100 191 90 q 406 398 330 200 q 276 529 406 413 q 230 621 249 616 q 130 583 202 621 q 31 736 65 583 l 31 766 q 46 850 31 775 l 46 858 l 0 927 l 0 943 z "},"v":{"ha":1335,"x_min":0,"x_max":1314,"o":"m 1305 932 l 1314 912 q 1088 696 1245 866 q 1246 539 1088 682 l 1275 490 q 1246 451 1261 451 l 1236 451 q 1138 549 1236 503 l 1128 549 q 1167 363 1167 510 l 1167 353 q 1177 343 1167 343 q 1147 304 1162 304 l 1138 304 q 1010 520 1138 439 q 785 637 1010 568 q 706 686 762 663 q 648 667 674 667 l 589 677 q 530 657 556 657 l 520 657 l 520 677 q 618 716 534 713 q 589 745 618 730 q 598 775 598 764 q 549 853 573 853 l 549 873 l 608 873 l 608 892 l 657 892 q 1030 726 769 786 q 1305 932 1225 932 m 628 431 q 785 402 785 425 l 785 393 q 736 304 751 393 l 745 304 q 677 196 728 224 l 657 206 l 648 206 q 628 186 628 203 q 716 39 634 107 q 696 20 716 20 l 667 20 l 539 157 q 471 39 471 157 q 500 20 500 39 q 481 0 500 0 l 441 0 q 412 79 412 6 l 412 127 l 363 127 q 334 98 349 127 l 334 59 l 382 59 q 402 39 402 56 l 402 20 q 373 9 373 20 q 226 137 268 9 l 226 147 l 245 176 q 216 216 231 216 q 39 127 216 173 l 0 127 l 0 137 q 245 334 116 137 q 422 382 331 382 q 520 373 507 373 q 628 431 520 431 z "},"w":{"ha":1556,"x_min":0,"x_max":1527,"o":"m 1466 962 l 1480 962 q 1511 931 1511 957 q 1527 687 1511 843 q 1191 153 1457 489 q 1404 77 1404 153 q 1313 0 1404 59 q 763 122 763 24 l 702 107 l 610 107 q 229 16 610 50 q 0 138 0 40 q 229 351 1 210 q 534 656 229 507 q 656 687 590 687 l 702 687 q 1008 626 827 687 l 1114 626 l 1175 671 q 1145 946 1145 824 l 1191 946 l 1297 870 l 1343 870 q 1466 962 1466 889 m 107 138 q 229 107 163 107 l 305 107 q 229 199 239 199 q 107 138 107 171 z "},"x":{"ha":1110,"x_min":0,"x_max":1095,"o":"m 0 958 q 105 937 86 947 q 253 958 184 958 l 295 958 q 842 779 443 958 q 1084 316 1084 563 l 1084 179 l 1074 158 q 1095 137 1095 155 l 1095 105 q 737 11 1095 42 q 726 0 737 0 l 653 21 l 653 84 l 632 74 q 579 105 579 87 l 579 126 q 695 158 579 158 q 611 274 611 231 l 600 274 q 463 0 565 0 l 453 0 q 390 42 400 0 q 474 116 390 66 q 484 232 484 188 l 484 305 q 463 411 484 326 l 368 400 q 116 526 138 526 l 95 516 l 32 516 l 21 568 q 105 611 21 590 l 105 621 q 42 758 71 621 l 42 832 l 21 863 l 21 874 l 42 874 q 0 958 0 918 m 126 600 q 326 547 176 600 l 326 558 q 274 684 326 684 q 126 600 126 610 z "},"y":{"ha":1573,"x_min":0,"x_max":1530,"o":"m 1469 964 l 1484 964 q 1514 933 1514 959 q 1530 688 1514 845 q 1194 153 1461 490 q 1408 77 1408 153 q 1316 0 1408 59 q 765 122 765 24 l 704 107 l 612 107 q 229 16 612 50 q 0 138 0 40 q 229 352 1 210 q 536 658 229 509 q 658 688 591 688 l 704 688 q 1010 627 829 688 l 1117 627 l 1178 673 q 1147 949 1147 826 l 1194 949 l 1301 872 l 1346 872 q 1469 964 1469 891 m 107 138 q 229 107 163 107 l 306 107 q 229 199 239 199 q 107 138 107 171 z "},"z":{"ha":1893,"x_min":0,"x_max":1847,"o":"m 1733 895 q 1776 867 1733 867 q 1819 881 1804 881 l 1819 867 q 1805 824 1805 840 q 1847 654 1833 781 l 1776 611 q 1663 668 1731 645 q 1620 654 1635 654 l 1620 597 q 1790 469 1662 597 q 1762 384 1762 411 l 1748 384 q 1478 497 1644 497 l 1463 469 q 1563 355 1517 469 q 1449 256 1563 270 l 1421 313 q 1449 341 1449 313 q 1336 412 1336 376 q 1137 341 1210 341 q 938 370 1045 341 q 654 184 866 184 q 739 71 654 117 l 739 43 l 654 43 q 583 0 654 0 q 511 241 511 83 l 511 256 q 625 327 511 272 q 668 526 625 394 l 640 540 l 597 540 q 213 611 519 540 l 199 611 q 14 568 124 611 l 0 597 l 0 640 q 199 696 136 696 q 795 625 510 640 q 1463 838 1204 725 q 1733 895 1661 838 z "},"{":{"ha":602,"x_min":0,"x_max":574,"o":"m 295 962 l 302 962 q 334 799 321 962 q 341 783 341 799 q 310 690 341 734 l 310 675 q 341 644 330 675 l 334 628 l 334 582 l 341 582 q 395 605 370 605 q 458 504 458 579 l 458 481 q 434 434 458 441 l 419 434 q 380 488 380 458 l 372 488 q 310 411 372 473 l 302 357 l 357 357 q 535 326 418 334 q 574 295 574 303 l 574 279 q 488 295 519 279 q 395 271 458 279 q 310 295 334 279 q 302 225 310 254 q 310 163 310 195 q 194 0 252 0 q 163 23 163 12 l 171 23 l 163 39 l 163 47 q 225 124 163 53 q 186 171 210 171 q 47 117 149 171 l 16 117 q 0 132 0 117 l 0 147 l 31 178 l 31 186 l 7 217 l 7 248 q 31 334 7 274 q 16 481 16 465 q 93 698 54 665 q 62 946 62 780 l 77 954 q 155 884 116 936 l 171 892 l 201 892 q 210 884 210 892 q 295 962 295 907 z "},"|":{"ha":1424,"x_min":0,"x_max":1381,"o":"m 328 937 l 527 937 q 785 901 637 937 q 901 937 878 937 q 1335 843 1137 937 q 1381 761 1351 761 q 1370 749 1381 749 l 1381 667 l 1381 597 q 1323 387 1342 408 l 1335 328 l 1335 304 q 1183 58 1183 217 q 1088 0 1183 0 l 1054 0 q 1030 47 1054 18 l 1030 58 q 1101 211 1030 86 l 1101 269 q 913 316 1034 269 l 925 258 q 890 199 916 199 l 878 199 l 843 222 q 738 47 789 66 l 667 47 q 632 82 650 47 l 632 140 q 738 281 738 227 q 726 351 738 290 l 738 421 q 691 503 714 421 l 679 503 q 621 374 679 374 q 550 456 559 374 l 562 538 l 550 621 q 609 749 568 749 q 621 738 609 738 l 644 772 l 644 785 l 632 785 q 363 819 590 785 q 105 796 329 819 q 0 819 87 796 l 0 866 q 328 937 254 937 z "},"}":{"ha":1712,"x_min":0,"x_max":1682,"o":"m 767 952 l 767 903 q 692 742 767 862 q 680 680 692 701 q 1063 445 957 680 q 1200 309 1063 309 l 1212 309 l 1459 359 q 1682 260 1577 359 l 1682 248 q 1657 235 1657 248 q 1459 260 1522 260 q 1162 186 1244 186 l 1088 186 q 1039 198 1061 186 q 977 173 999 173 l 989 149 l 989 123 q 791 87 858 87 q 680 99 747 87 l 655 87 q 557 149 581 87 l 507 161 q 161 0 507 111 l 149 0 q 87 50 87 33 l 87 87 q 149 123 87 115 l 149 111 q 272 186 245 142 l 272 222 q 248 297 272 256 q 62 198 123 198 q 0 248 5 222 l 0 260 q 123 334 0 299 q 198 408 123 351 l 186 433 q 248 643 186 496 l 186 779 q 260 878 186 878 q 408 928 277 878 q 544 903 528 903 q 767 952 745 952 z "},"~":{"ha":688,"x_min":0,"x_max":0,"o":""},"":{"ha":456,"x_min":0,"x_max":0,"o":""},"":{"ha":772,"x_min":0,"x_max":0,"o":""},"":{"ha":688,"x_min":0,"x_max":0,"o":""},"":{"ha":688,"x_min":0,"x_max":0,"o":""},"":{"ha":856,"x_min":0,"x_max":0,"o":""},"":{"ha":688,"x_min":0,"x_max":0,"o":""},"":{"ha":688,"x_min":0,"x_max":0,"o":""},"":{"ha":694,"x_min":0,"x_max":0,"o":""},"":{"ha":1135,"x_min":0,"x_max":0,"o":""},"":{"ha":439,"x_min":0,"x_max":0,"o":""},"":{"ha":640,"x_min":0,"x_max":0,"o":""},"":{"ha":688,"x_min":0,"x_max":0,"o":""},"":{"ha":1135,"x_min":0,"x_max":0,"o":""},"":{"ha":454,"x_min":0,"x_max":0,"o":""},"":{"ha":457,"x_min":0,"x_max":0,"o":""},"":{"ha":688,"x_min":0,"x_max":0,"o":""},"":{"ha":688,"x_min":0,"x_max":0,"o":""},"":{"ha":688,"x_min":0,"x_max":0,"o":""},"":{"ha":694,"x_min":0,"x_max":0,"o":""},"":{"ha":800,"x_min":0,"x_max":0,"o":""},"":{"ha":694,"x_min":0,"x_max":0,"o":""},"":{"ha":345,"x_min":0,"x_max":0,"o":""},"":{"ha":694,"x_min":0,"x_max":0,"o":""},"":{"ha":688,"x_min":0,"x_max":0,"o":""},"":{"ha":487,"x_min":0,"x_max":0,"o":""},"":{"ha":640,"x_min":0,"x_max":0,"o":""},"":{"ha":1158,"x_min":0,"x_max":0,"o":""},"":{"ha":1332,"x_min":0,"x_max":0,"o":""},"":{"ha":1158,"x_min":0,"x_max":0,"o":""},"":{"ha":507,"x_min":0,"x_max":0,"o":""},"":{"ha":1044,"x_min":0,"x_max":0,"o":""},"":{"ha":1044,"x_min":0,"x_max":0,"o":""},"":{"ha":1044,"x_min":0,"x_max":0,"o":""},"":{"ha":1044,"x_min":0,"x_max":0,"o":""},"":{"ha":1044,"x_min":0,"x_max":0,"o":""},"":{"ha":1044,"x_min":0,"x_max":0,"o":""},"":{"ha":1436,"x_min":0,"x_max":0,"o":""},"":{"ha":949,"x_min":0,"x_max":0,"o":""},"":{"ha":781,"x_min":0,"x_max":0,"o":""},"":{"ha":781,"x_min":0,"x_max":0,"o":""},"":{"ha":781,"x_min":0,"x_max":0,"o":""},"":{"ha":781,"x_min":0,"x_max":0,"o":""},"":{"ha":446,"x_min":0,"x_max":0,"o":""},"":{"ha":446,"x_min":0,"x_max":0,"o":""},"":{"ha":446,"x_min":0,"x_max":0,"o":""},"":{"ha":446,"x_min":0,"x_max":0,"o":""},"":{"ha":1029,"x_min":0,"x_max":0,"o":""},"":{"ha":1054,"x_min":0,"x_max":0,"o":""},"":{"ha":1095,"x_min":0,"x_max":0,"o":""},"":{"ha":1095,"x_min":0,"x_max":0,"o":""},"":{"ha":1095,"x_min":0,"x_max":0,"o":""},"":{"ha":1095,"x_min":0,"x_max":0,"o":""},"":{"ha":1095,"x_min":0,"x_max":0,"o":""},"":{"ha":1384,"x_min":7,"x_max":1339,"o":"m 117 1074 l 125 1070 l 133 1070 q 137 1074 137 1070 l 145 1070 l 157 1070 q 161 1074 161 1070 l 170 1070 l 182 1070 q 186 1074 186 1070 l 194 1070 l 210 1070 q 214 1074 214 1070 l 222 1070 l 231 1070 q 235 1074 235 1070 l 243 1070 l 255 1070 q 259 1074 259 1070 l 267 1070 l 279 1070 q 283 1074 283 1070 l 292 1070 l 308 1070 q 312 1074 312 1070 l 320 1070 l 328 1070 q 332 1074 332 1070 l 341 1070 l 353 1070 q 357 1074 357 1070 l 366 1070 l 378 1070 q 382 1074 382 1070 l 390 1070 l 406 1070 q 410 1074 410 1070 l 418 1070 l 427 1070 q 431 1074 431 1070 l 439 1070 l 451 1070 q 455 1074 455 1070 l 463 1070 l 475 1070 q 479 1074 479 1070 l 488 1070 l 504 1070 q 508 1074 508 1070 l 516 1070 l 524 1070 q 528 1074 528 1070 l 536 1070 l 549 1070 q 553 1074 553 1070 l 561 1070 l 573 1070 q 577 1074 577 1070 l 585 1070 l 602 1070 q 606 1074 606 1070 l 614 1070 l 622 1070 q 626 1074 626 1070 l 634 1070 l 646 1070 q 650 1074 650 1070 l 659 1070 l 671 1070 q 675 1074 675 1070 l 683 1070 l 699 1070 q 703 1074 703 1070 l 711 1070 l 720 1070 q 724 1074 724 1070 l 732 1070 l 744 1070 q 748 1074 748 1070 l 756 1070 l 768 1070 q 772 1074 772 1070 l 781 1070 l 797 1070 q 801 1074 801 1070 l 809 1070 l 817 1070 q 821 1074 821 1070 l 829 1070 l 842 1070 q 846 1074 846 1070 l 854 1070 l 866 1070 q 870 1074 870 1070 l 878 1070 l 895 1070 q 899 1074 899 1070 l 907 1070 l 915 1070 q 919 1074 919 1070 l 927 1070 l 939 1070 q 943 1074 943 1070 l 951 1070 l 964 1070 q 968 1074 968 1070 l 976 1070 l 992 1070 q 996 1074 996 1070 l 1004 1070 l 1013 1070 q 1017 1074 1017 1070 l 1025 1070 l 1038 1070 q 1042 1074 1042 1070 l 1050 1070 l 1062 1070 q 1066 1074 1066 1070 l 1074 1070 l 1090 1070 q 1095 1074 1095 1070 l 1103 1070 l 1111 1070 q 1115 1074 1115 1070 l 1123 1070 l 1135 1070 q 1139 1074 1139 1070 l 1147 1070 l 1160 1070 q 1164 1074 1164 1070 l 1172 1070 l 1188 1070 q 1192 1074 1192 1070 l 1200 1070 l 1208 1070 q 1213 1074 1213 1070 l 1221 1070 l 1245 1070 q 1339 1005 1339 1070 l 1339 -180 q 1261 -258 1339 -241 l 76 -258 q 11 -176 21 -258 l 11 -144 q 7 -140 11 -140 l 11 -132 l 11 -66 q 7 -62 11 -62 l 11 -54 l 11 -46 q 7 -42 11 -42 l 11 -34 l 11 31 q 7 35 11 35 l 11 43 l 11 52 q 7 56 11 56 l 11 64 l 11 130 q 7 134 11 134 l 11 142 l 11 150 q 7 154 11 154 l 11 162 l 11 227 q 7 231 11 231 l 11 239 l 11 248 q 7 252 11 252 l 11 260 l 11 325 q 7 329 11 329 l 11 337 l 11 345 q 7 349 11 349 l 11 357 l 11 422 q 7 427 11 427 l 11 435 l 11 443 q 7 447 11 447 l 11 455 l 11 520 q 7 524 11 524 l 11 532 l 11 541 q 7 545 11 545 l 11 553 l 11 618 q 7 622 11 622 l 11 630 l 11 638 q 7 642 11 642 l 11 650 l 11 715 q 7 720 11 720 l 11 728 l 11 736 q 7 740 11 740 l 11 749 l 11 814 q 7 818 11 818 l 11 826 l 11 834 q 7 838 11 838 l 11 846 l 11 911 q 7 916 11 916 l 11 924 l 11 932 q 7 936 11 936 l 11 944 l 11 1021 q 60 1070 11 1070 l 113 1070 q 117 1074 117 1070 m 19 993 l 19 -168 q 72 -245 19 -232 l 1270 -245 q 1326 -189 1303 -245 l 1326 1009 q 1249 1062 1313 1062 l 88 1062 q 23 1025 23 1062 q 19 993 19 1021 m 92 1054 l 1249 1054 q 1318 1005 1310 1054 l 1318 -184 q 1265 -237 1318 -218 l 76 -237 q 27 -168 27 -229 l 27 989 q 56 1050 27 1050 q 92 1054 71 1054 m 60 1021 l 60 -201 l 1282 -201 l 1282 1021 l 60 1021 m 768 1013 q 781 1009 777 1009 l 781 928 q 772 920 781 920 l 748 920 q 650 814 677 920 l 650 785 l 724 785 q 732 777 732 784 l 732 691 l 650 691 l 650 463 l 561 463 l 561 830 q 667 989 561 921 q 768 1013 713 1013 m 88 170 l 137 170 l 137 158 l 117 158 l 117 109 l 109 109 l 109 158 l 88 158 l 88 170 m 145 170 l 161 170 q 194 158 192 170 l 194 146 q 182 138 194 138 l 198 109 l 190 109 l 165 134 l 157 134 l 157 109 l 145 109 l 145 170 m 206 170 l 210 170 q 218 162 218 169 l 218 117 l 243 117 l 243 162 q 251 170 244 170 l 255 170 l 255 121 q 231 105 255 113 q 206 121 206 113 l 206 170 m 267 170 l 312 170 l 312 158 l 279 158 l 279 146 l 304 146 q 312 138 312 144 l 304 134 l 279 134 l 279 117 l 312 117 l 312 109 l 267 109 l 267 170 m 324 170 l 366 170 l 366 158 l 336 158 l 336 142 l 361 142 l 361 134 l 336 134 l 336 109 l 324 109 l 324 170 m 406 170 q 435 138 429 170 q 402 105 427 105 q 374 138 384 105 q 406 170 378 170 m 443 170 l 447 170 q 479 134 452 170 q 488 170 479 170 l 492 170 l 492 109 l 484 109 q 459 146 475 109 l 455 146 l 455 109 l 443 109 l 443 170 m 500 170 l 549 170 l 549 158 l 528 158 l 528 109 l 520 109 l 520 158 l 500 158 l 500 170 m 581 170 q 602 150 602 170 l 597 150 l 581 162 l 577 162 q 569 154 569 161 l 569 146 q 602 130 602 142 l 602 117 q 577 105 602 109 q 553 130 565 105 l 565 130 q 573 117 565 117 l 585 117 q 593 125 593 117 q 557 146 588 130 l 557 158 q 581 170 561 170 m 638 170 l 650 170 q 683 146 683 170 q 675 138 675 144 l 683 138 l 683 117 q 675 109 683 109 l 638 109 l 638 170 m 695 170 l 699 170 q 707 162 707 169 l 707 117 l 728 117 q 736 109 736 116 l 695 109 l 695 170 m 772 170 q 801 138 795 170 q 768 105 793 105 q 740 138 750 105 q 772 170 744 170 m 833 170 q 854 150 854 170 l 850 150 l 833 162 l 829 162 q 821 154 821 161 l 821 146 q 854 130 854 142 l 854 117 q 829 105 854 109 q 805 130 817 105 l 817 130 q 825 117 817 117 l 838 117 q 846 125 846 117 q 809 146 841 130 l 809 158 q 833 170 813 170 m 866 170 l 878 170 q 911 158 909 170 l 911 142 q 878 125 911 135 l 878 109 l 866 109 l 866 170 m 951 170 q 980 138 974 170 q 947 105 972 105 q 919 138 929 105 q 951 170 923 170 m 984 170 l 1034 170 l 1034 158 l 1013 158 l 1013 109 l 1004 109 l 1004 158 l 984 158 l 984 170 m 1095 170 l 1099 170 q 1115 154 1105 170 l 1115 150 l 1103 150 q 1090 162 1103 162 q 1074 138 1074 158 l 1074 130 q 1086 117 1074 123 l 1103 117 q 1111 130 1103 130 l 1115 130 l 1115 121 q 1095 105 1113 113 q 1062 142 1067 105 q 1095 170 1062 166 m 1156 170 q 1184 138 1178 170 q 1152 105 1176 105 q 1123 138 1133 105 q 1156 170 1127 170 m 1192 170 l 1200 170 q 1221 125 1209 170 l 1225 125 q 1241 170 1231 170 l 1249 170 l 1249 109 l 1241 109 l 1241 146 l 1237 146 l 1229 109 l 1213 109 l 1208 138 l 1204 138 l 1204 109 l 1192 109 l 1192 170 m 386 146 l 386 130 q 398 117 386 123 l 410 117 q 422 130 416 117 l 422 146 q 406 162 422 152 l 402 162 q 386 146 395 162 m 752 146 l 752 130 q 764 117 752 123 l 777 117 q 789 130 783 117 l 789 146 q 772 162 789 152 l 768 162 q 752 146 762 162 m 931 146 l 931 130 q 943 117 931 123 l 956 117 q 968 130 962 117 l 968 146 q 951 162 968 152 l 947 162 q 931 146 941 162 m 1135 146 l 1135 130 q 1147 117 1135 123 l 1160 117 q 1172 130 1165 117 l 1172 146 q 1156 162 1172 152 l 1152 162 q 1135 146 1145 162 m 157 158 l 157 142 l 174 142 q 182 150 182 142 l 182 158 l 157 158 m 650 158 l 650 146 l 671 146 l 671 158 l 650 158 m 878 158 l 878 142 l 895 142 q 903 150 903 142 q 895 158 903 158 l 878 158 m 650 134 l 650 117 l 667 117 q 675 125 675 117 q 667 134 675 134 l 650 134 m 614 117 l 618 117 q 626 109 626 116 l 614 109 l 614 117 m 1042 117 l 1046 117 q 1054 109 1054 116 l 1042 109 l 1042 117 z "},"":{"ha":1095,"x_min":0,"x_max":0,"o":""},"":{"ha":1018,"x_min":0,"x_max":0,"o":""},"":{"ha":1018,"x_min":0,"x_max":0,"o":""},"":{"ha":1018,"x_min":0,"x_max":0,"o":""},"":{"ha":1018,"x_min":0,"x_max":0,"o":""},"":{"ha":836,"x_min":0,"x_max":0,"o":""},"":{"ha":760,"x_min":0,"x_max":0,"o":""},"":{"ha":848,"x_min":0,"x_max":0,"o":""},"":{"ha":625,"x_min":0,"x_max":0,"o":""},"":{"ha":625,"x_min":0,"x_max":0,"o":""},"":{"ha":625,"x_min":0,"x_max":0,"o":""},"":{"ha":625,"x_min":0,"x_max":0,"o":""},"":{"ha":625,"x_min":0,"x_max":0,"o":""},"":{"ha":625,"x_min":0,"x_max":0,"o":""},"":{"ha":986,"x_min":0,"x_max":0,"o":""},"":{"ha":614,"x_min":0,"x_max":0,"o":""},"":{"ha":616,"x_min":0,"x_max":0,"o":""},"":{"ha":616,"x_min":0,"x_max":0,"o":""},"":{"ha":616,"x_min":0,"x_max":0,"o":""},"":{"ha":616,"x_min":0,"x_max":0,"o":""},"":{"ha":349,"x_min":0,"x_max":0,"o":""},"":{"ha":349,"x_min":0,"x_max":0,"o":""},"":{"ha":349,"x_min":0,"x_max":0,"o":""},"":{"ha":349,"x_min":0,"x_max":0,"o":""},"":{"ha":772,"x_min":0,"x_max":0,"o":""},"":{"ha":751,"x_min":0,"x_max":0,"o":""},"":{"ha":685,"x_min":0,"x_max":0,"o":""},"":{"ha":685,"x_min":0,"x_max":0,"o":""},"":{"ha":685,"x_min":0,"x_max":0,"o":""},"":{"ha":685,"x_min":0,"x_max":0,"o":""},"":{"ha":685,"x_min":0,"x_max":0,"o":""},"":{"ha":688,"x_min":0,"x_max":0,"o":""},"":{"ha":685,"x_min":0,"x_max":0,"o":""},"":{"ha":718,"x_min":0,"x_max":0,"o":""},"":{"ha":718,"x_min":0,"x_max":0,"o":""},"":{"ha":718,"x_min":0,"x_max":0,"o":""},"":{"ha":718,"x_min":0,"x_max":0,"o":""},"":{"ha":589,"x_min":0,"x_max":0,"o":""},"":{"ha":685,"x_min":0,"x_max":0,"o":""},"":{"ha":589,"x_min":0,"x_max":0,"o":""},"":{"ha":349,"x_min":0,"x_max":0,"o":""},"":{"ha":694,"x_min":0,"x_max":0,"o":""},"":{"ha":694,"x_min":0,"x_max":0,"o":""},"":{"ha":694,"x_min":0,"x_max":0,"o":""},"":{"ha":694,"x_min":0,"x_max":0,"o":""},"":{"ha":694,"x_min":0,"x_max":0,"o":""},"":{"ha":694,"x_min":0,"x_max":0,"o":""},"":{"ha":588,"x_min":0,"x_max":0,"o":""},"":{"ha":694,"x_min":0,"x_max":0,"o":""},"":{"ha":694,"x_min":0,"x_max":0,"o":""},"":{"ha":751,"x_min":0,"x_max":0,"o":""},"":{"ha":1389,"x_min":0,"x_max":0,"o":""},"":{"ha":378,"x_min":0,"x_max":0,"o":""},"":{"ha":378,"x_min":0,"x_max":0,"o":""},"":{"ha":378,"x_min":0,"x_max":0,"o":""},"":{"ha":617,"x_min":0,"x_max":0,"o":""},"":{"ha":617,"x_min":0,"x_max":0,"o":""},"":{"ha":617,"x_min":0,"x_max":0,"o":""},"":{"ha":688,"x_min":0,"x_max":0,"o":""},"":{"ha":688,"x_min":0,"x_max":0,"o":""},"":{"ha":694,"x_min":0,"x_max":0,"o":""},"":{"ha":1389,"x_min":0,"x_max":0,"o":""},"":{"ha":428,"x_min":0,"x_max":0,"o":""},"":{"ha":428,"x_min":0,"x_max":0,"o":""},"":{"ha":232,"x_min":0,"x_max":0,"o":""},"":{"ha":688,"x_min":0,"x_max":0,"o":""},"":{"ha":688,"x_min":0,"x_max":0,"o":""},"":{"ha":1375,"x_min":0,"x_max":0,"o":""},"":{"ha":688,"x_min":0,"x_max":0,"o":""},"":{"ha":1540,"x_min":0,"x_max":0,"o":""},"":{"ha":1015,"x_min":0,"x_max":0,"o":""},"":{"ha":688,"x_min":0,"x_max":0,"o":""},"":{"ha":733,"x_min":0,"x_max":0,"o":""},"":{"ha":1027,"x_min":0,"x_max":0,"o":""},"":{"ha":818,"x_min":0,"x_max":0,"o":""},"":{"ha":688,"x_min":0,"x_max":0,"o":""},"":{"ha":688,"x_min":0,"x_max":0,"o":""},"":{"ha":688,"x_min":0,"x_max":0,"o":""},"":{"ha":451,"x_min":0,"x_max":0,"o":""},"":{"ha":688,"x_min":0,"x_max":0,"o":""},"":{"ha":688,"x_min":0,"x_max":0,"o":""},"":{"ha":688,"x_min":0,"x_max":0,"o":""},"":{"ha":728,"x_min":0,"x_max":0,"o":""},"":{"ha":733,"x_min":0,"x_max":0,"o":""}}}
